<svg version="1.1" id="mountAipetri" xmlns="http://www.w3.org/2000/svg" xmlns:xlink="http://www.w3.org/1999/xlink" x="0px" y="0px"
	 viewBox="0 0 293.2 134.1" style="enable-background:new 0 0 293.2 134.1;" xml:space="preserve">
<style type="text/css">
	.st0{fill:#704F43;}
	.st1{fill:#7C5E55;}
	.st2{fill:#566470;}
	.st3{fill:#4F657E;}
	.st4{fill:#515F68;}
	.st5{fill:#664D4D;}
	.st6{fill:#614E4D;}
	.st7{fill:#67603D;}
	.st8{fill:#6E6A4B;}
	.st9{fill:#525C5B;}
	.st10{fill:#4D4A4D;}
	.st11{fill:#576171;}
	.st12{fill:#857B6F;}
	.st13{fill:#6B5853;}
	.st14{fill:#645E44;}
	.st15{fill:#0F0805;}
	.st16{fill:#5B5C51;}
	.st17{fill:#78694F;}
	.st18{fill:#AA9171;}
	.st19{fill:#735950;}
	.st20{fill:#7C6D57;}
	.st21{fill:#816E6A;}
	.st22{fill:#644D46;}
	.st23{fill:#301C18;}
	.st24{fill:#A18578;}
	.st25{fill:#523D3B;}
	.st26{fill:#484032;}
	.st27{fill:#5A483E;}
	.st28{fill:#9E8969;}
	.st29{fill:#645733;}
	.st30{fill:#261F21;}
	.st31{fill:#54432A;}
	.st32{fill:#161519;}
	.st33{fill:#948177;}
	.st34{fill:#443B32;}
	.st35{fill:#4C5453;}
	.st36{fill:#CE8F64;}
	.st37{fill:#9AA19E;}
	.st38{fill:#4D4634;}
	.st39{fill:#52452E;}
	.st40{fill:#1F0F0B;}
	.st41{fill:#9E8C7B;}
	.st42{fill:#6D7678;}
	.st43{fill:#A8997B;}
	.st44{fill:#4B3430;}
	.st45{fill:#AC9885;}
	.st46{fill:#807373;}
	.st47{fill:#7C6A6B;}
	.st48{fill:#1E0A06;}
	.st49{fill:#3C3F1B;}
	.st50{fill:#92827F;}
	.st51{fill:#B2996F;}
	.st52{fill:#7B5B31;}
	.st53{fill:#41371D;}
	.st54{fill:#A09171;}
	.st55{fill:#413419;}
	.st56{fill:#857C64;}
	.st57{fill:#303118;}
	.st58{fill:#79584F;}
	.st59{fill:#6C5656;}
	.st60{fill:#7A6663;}
	.st61{fill:#6A422C;}
	.st62{fill:#4C3026;}
	.st63{fill:#927264;}
	.st64{fill:#756365;}
	.st65{fill:#342624;}
	.st66{fill:#846F6C;}
	.st67{fill:#734F46;}
	.st68{fill:#907672;}
	.st69{fill:#5A6263;}
	.st70{fill:#636A74;}
	.st71{fill:#7B858A;}
	.st72{fill:#768080;}
	.st73{fill:#858390;}
	.st74{fill:#556D84;}
	.st75{fill:#5A545C;}
	.st76{fill:#888080;}
	.st77{fill:#3B648C;}
	.st78{fill:#735041;}
	.st79{fill:#866D5E;}
	.st80{fill:#C6A993;}
	.st81{fill:#241014;}
	.st82{fill:#5E453D;}
	.st83{fill:#7A635E;}
	.st84{fill:#6B5857;}
	.st85{fill:#4B3D3F;}
	.st86{fill:#D7C5BD;}
	.st87{fill:#392729;}
	.st88{fill:#180B0E;}
	.st89{fill:#68636B;}
	.st90{fill:#7A6D73;}
	.st91{fill:#4D4B50;}
	.st92{fill:#636753;}
	.st93{fill:#534C2A;}
	.st94{fill:#897B5D;}
	.st95{fill:#958461;}
	.st96{fill:#4A4039;}
	.st97{fill:#A0927C;}
	.st98{fill:#3D391A;}
	.st99{fill:#3E3420;}
	.st100{fill:#837449;}
	.st101{fill:#4D4925;}
	.st102{fill:#948A73;}
	.st103{fill:#928872;}
	.st104{fill:#514E2B;}
	.st105{fill:#877559;}
	.st106{fill:#535243;}
	.st107{fill:#544E3C;}
	.st108{fill:#AB9A80;}
	.st109{fill:#C1AE90;}
	.st110{fill:#857F6B;}
	.st111{fill:#2F2C19;}
	.st112{fill:#867159;}
	.st113{fill:#596576;}
	.st114{fill:#3A373C;}
	.st115{fill:#2B2824;}
	.st116{fill:#596466;}
	.st117{fill:#8B9093;}
	.st118{fill:#6F6E78;}
	.st119{fill:#ABACB2;}
	.st120{fill:#BFC2CF;}
	.st121{fill:#695B4B;}
	.st122{fill:#51544F;}
	.st123{fill:#979496;}
	.st124{fill:#3F312D;}
	.st125{fill:#221F14;}
	.st126{fill:#333316;}
	.st127{fill:#796D52;}
	.st128{fill:#241714;}
	.st129{fill:#2D2616;}
	.st130{fill:#504632;}
	.st131{fill:#6F625C;}
	.st132{fill:#545752;}
	.st133{fill:#E4AD78;}
	.st134{fill:#C98B5F;}
	.st135{fill:#2B220F;}
	.st136{fill:#27230B;}
	.st137{fill:#A1967F;}
	.st138{fill:#9B876C;}
	.st139{fill:#BEA586;}
	.st140{fill:#9A8972;}
	.st141{fill:#585E58;}
	.st142{fill:#554F3E;}
	.st143{fill:#756854;}
	.st144{fill:#362C24;}
	.st145{fill:#A08F7B;}
	.st146{fill:#A29488;}
	.st147{fill:#321D10;}
	.st148{fill:#594337;}
	.st149{fill:#AE958D;}
	.st150{fill:#C9B1AB;}
	.st151{fill:#59523E;}
	.st152{fill:#786845;}
	.st153{fill:#767A77;}
	.st154{fill:#8F7A71;}
	.st155{fill:#4D5E6B;}
	.st156{fill:#5A5257;}
	.st157{fill:#1C2527;}
	.st158{fill:#474850;}
	.st159{fill:#775D59;}
	.st160{fill:#664D4A;}
	.st161{fill:#695350;}
	.st162{fill:#533A31;}
	.st163{fill:#967264;}
	.st164{fill:#625B66;}
	.st165{fill:#857276;}
	.st166{fill:#7F797F;}
	.st167{fill:#5C4E56;}
	.st168{fill:#473C44;}
	.st169{fill:#180E11;}
	.st170{fill:#69604B;}
	.st171{fill:#798285;}
	.st172{fill:#99A3A5;}
	.st173{fill:#62676A;}
	.st174{fill:#8A9199;}
	.st175{fill:#6D7B89;}
	.st176{fill:#9297A1;}
	.st177{fill:#6A5758;}
	.st178{fill:#6D6166;}
	.st179{fill:#C3A496;}
	.st180{fill:#69696D;}
	.st181{fill:#CABABA;}
	.st182{fill:#50739A;}
	.st183{fill:#537DA1;}
	.st184{fill:#5F7894;}
	.st185{fill:#777D84;}
	.st186{fill:#929AAD;}
	.st187{fill:#798399;}
	.st188{fill:#554443;}
	.st189{fill:#877C7E;}
	.st190{fill:#55372E;}
	.st191{fill:#BCA394;}
	.st192{fill:#565C56;}
	.st193{fill:#644A29;}
	.st194{fill:#90765E;}
	.st195{fill:#A8907E;}
	.st196{fill:#483B3B;}
	.st197{fill:#5F6765;}
	.st198{fill:#4F5348;}
	.st199{fill:#54574D;}
	.st200{fill:#58584A;}
	.st201{fill:#5B543C;}
	.st202{fill:#D2BFAA;}
	.st203{fill:#C5B29A;}
	.st204{fill:#404343;}
	.st205{fill:#CEC1AB;}
	.st206{fill:#695E50;}
	.st207{fill:#887764;}
	.st208{fill:#BDAA8E;}
	.st209{fill:#4C4B52;}
	.st210{fill:#A29589;}
	.st211{fill:#504742;}
	.st212{fill:#685A57;}
	.st213{fill:#686858;}
	.st214{fill:#646C79;}
	.st215{fill:#5B4542;}
	.st216{fill:#6E5E56;}
	.st217{fill:#90939B;}
	.st218{fill:#6E788D;}
	.st219{fill:#848D9B;}
	.st220{fill:#898F99;}
	.st221{fill:#BCA69F;}
	.st222{fill:#47372F;}
	.st223{fill:#969AA6;}
	.st224{fill:#818797;}
	.st225{fill:#A78F81;}
	.st226{fill:#35251F;}
	.st227{fill:#BCAAA5;}
	.st228{fill:#72605A;}
	.st229{fill:#412E1E;}
	.st230{fill:#CAB2A4;}
	.st231{fill:#50442A;}
	.st232{fill:#AF9781;}
	.st233{fill:#4A3C39;}
	.st234{fill:#80AFDC;}
	.st235{fill:#5C6161;}
	.st236{fill:#895C3C;}
	.st237{fill:#A46D3D;}
	.st238{fill:#D29B6F;}
	.st239{fill:#71756F;}
	.st240{fill:#6E726C;}
	.st241{fill:#D89E65;}
	.st242{fill:#797C76;}
	.st243{fill:#3A363F;}
	.st244{fill:#C19874;}
	.st245{fill:#CE9A76;}
	.st246{fill:#534B3F;}
	.st247{fill:#D99D76;}
	.st248{fill:#825A38;}
	.st249{fill:#7A6E6B;}
	.st250{fill:#7A6E71;}
	.st251{fill:#594445;}
	.st252{fill:#634E47;}
	.st253{fill:#665255;}
	.st254{fill:#6C5C62;}
	.st255{fill:#2E2931;}
	.st256{fill:#393642;}
	.st257{fill:#847B86;}
	.st258{fill:#31272C;}
	.st259{fill:#B09992;}
	.st260{fill:#4F4248;}
	.st261{fill:#8D7167;}
	.st262{fill:#2A1A1E;}
	.st263{fill:#4E444C;}
	.st264{fill:#5D4F4F;}
	.st265{fill:#989DAC;}
	.st266{fill:#5B4D4F;}
	.st267{fill:#544545;}
	.st268{fill:#6E6C70;}
	.st269{fill:#9F8982;}
	.st270{fill:#CAA37F;}
	.st271{fill:#655450;}
	.st272{fill:#A9AEBA;}
	.st273{fill:#8A9BB0;}
	.st274{fill:#657076;}
	.st275{fill:#B69475;}
	.st276{fill:#D2DCE7;}
	.st277{fill:#6C7588;}
	.st278{fill:#818696;}
	.st279{fill:#DECBBD;}
	.st280{fill:#BFAB94;}
	.st281{fill:#9C866B;}
	.st282{fill:#A39A95;}
	.st283{fill:#A9988E;}
	.st284{fill:#8B95AB;}
	.st285{fill:#D59A6E;}
	.st286{fill:#D79E6F;}
	.st287{fill:#756B71;}
	.st288{fill:#45393D;}
	.st289{fill:#7A8A9A;}
</style>
<g>
	<path class="st0" d="M226.1,134c-13.7,0-27.3,0-41,0c0.7-4.3,1.7-8.6,5-11.6c2.3-2.1,1.1-2.4-0.9-2.8c-1.7,0.2-3.4-2.1-5.1,0.2
		c-0.8,1-1.6,1.8-3,1.8c-4.2-3.8-3.4-8.9-3.9-13.8c0.2-0.5,0.5-0.9,0.9-1.2c0.4-0.2,1-0.5,1.4-0.3c2.6,1.4,1.8-0.3,1.5-1.6
		c-0.1-0.5-0.2-1-0.2-1.4c-0.1-1.7-2.2-3.6-0.7-5c1.5-1.4,3.1,0.3,4.7,1.2c2.2,1.3,3.1-2.1,5.1-1.7c0.7,0.5,0.9,1.3,1.7,1.8
		c-0.5-0.8-1.2-1.4-1.8-2.1c0.1-2.4,1-4.8,0.3-7.3c-0.5-2,1.1-3.7,2.9-4.1c2.5-0.7,1.7,1.8,2.1,3c0.4,1.1,0.6,2.3,1.2,3.3
		c2.3,3.3,4.2,6.6,0.7,9c-0.8,1.6,0.6,1.2,0,1.1c-0.3,0-0.2-0.1-0.2-0.5c0.6-2.4,2.8-3.1,4.5-4.4c1-0.7,2.3-0.7,3.1,0.5
		c0.7,1,0.3,2.1-0.5,2.6c-2.6,1.5-3.3,4.7-5.6,6.3c-1.3,0.9-2.1,1.2-0.9,2.8c1.1,1.5,1,3.4,1.1,5.4c0.5-3.7,0.3-7.5,2.3-10.8
		c1.9-3,3.9-4.7,7.1-1.7c1.2,2.2,0,2.9-2,3.2c1,0.5,2,1.1,2.5,2.1c0.8,1.5,1.1,3.1,1.1,4.7c0,1-0.1,1.9-0.4,2.9
		c-1.6,2.8-2.3,5.3,0.2,8.4c2.6,3.3,5.1,1.8,7.9,1.3c2.2-0.8,4.5-1.1,6.6-2.1c1.5-0.7,3.3-1.9,4.5-0.2c1.3,1.8,2.4,4.2,1,6.4
		C228,131,227.4,132.7,226.1,134z"/>
	<path class="st1" d="M174.1,134c-8.7,0-17.3,0-26,0c-1.1-1.1-2.4-2.1-2.7-3.7c-0.1-0.4-0.1-0.9-0.1-1.3c0.1-2.4-0.3-4.7-1.6-6.8
		c-0.1-0.4-0.2-0.9-0.1-1.3c0.6-1.4,1.2-2.9,2.2-4.1c1.7-2.5,4.1-3.7,7-3.8c0.7-0.3,2.1-0.7,1.9-1c-0.8-1.4-2.1-0.1-3.2-0.4
		c-0.9-0.1-2-0.5-1.8-1.3c0.5-3.1-0.4-5.8-1.4-8.7c-0.4-1.3-0.5-2.8,0.9-3.5c1.3-0.7,2.2,0.6,2.7,1.6c1.7,3.3,3.8,2.5,6.6,1.4
		c4.8-1.8,8.8-4.2,11.2-8.8c0.5-0.9,1.3-2.1,2.8-1.1c2.5,3.5,2,7.8,3.4,11.6c1,3.1,1.2,6.4,1.8,9.6c-1.3,2-2.6,3.8-1.4,6.7
		c0.9,2.1,0.9,5.1-1,7.1c-1.1,1.2-1.2,1.8-0.6,3.2C175.5,130.9,175.4,132.6,174.1,134z"/>
	<path class="st2" d="M0.1,15c0-0.7,0-1.3,0-2c1.2-1.1,2.7-1.4,4.2-1c7.5,2.3,15.8,1.7,22.7,5.4c6.7,3.6,13.8,5.7,20.6,8.7
		c2.3,3.1,5,0.9,7.5,0.6c3,0.1,6.3-1.4,8.5,2.1c-1.9,4.5-4.9,0.6-7.4,1.5c-0.2,1.6,1.5,2.1,2.8,3c3.1,2,6.6,2.4,10.1,2.5
		c1.8,0.1,3.4,0.5,5,1.2c0.4,0.2,0.8,0.5,1.1,0.8c-2.2,1.5,1.1,2.9,0.1,4.3c-2.2,1.2-4.4,1-6.5-0.2c-6.9-1.2-13.6,0.1-20.4,1.4
		c-0.4,0.2-0.9,0.3-1.4,0.3c-1.4-0.2-2.8-0.4-4.2-0.8c-3.6-1.2-7.3-2.2-10.3-4.7c-1.9-1.6-4.8-2.8-3-6.3c0.7-1.4-0.7-1.5-1.6-1.7
		c-2.8-0.7-4.9-3.5-7.1-4c-5.7-1.2-9.6-4.3-13.6-8C5.4,16.3,2,17.1,0.1,15z"/>
	<path class="st3" d="M63.1,30c-2.2-4.1-6-1.1-9-2.1c-2-0.6-4.2,0.8-6-1c-6.4-1.7-13.1-2.7-18.5-7c-2.2-1.8-4.8-2.2-7.3-2.7
		C14.9,15.6,7.5,14.4,0.1,13c0-1,0-2,0-3c1-0.8,2-1.3,3.3-1.4c6-0.2,11.9-0.1,17.9-0.1c0.9-0.1,1.7,0,2.6,0c1.1,0,2.3,0.2,3.4,0.4
		c9.5,0.7,18.8,3,28,5.1c0.5,0.4,1.2,0.7,0.8,1.5c-1.6,3.8-1.1,5.1,2.8,5.7c2.4,0.4,4.3,2.3,7,1.9c1.4-0.2,2.3,1.4,2.1,2.8
		c-0.3,2.9,1.5,3.6,3.7,4.3c0.8,2.3-0.1,4-1.9,5.3C68.9,36,68,36,67.2,35.5c-1.1-1.1-2.2-2.3-3.7-2.9C62.7,31.8,62.3,31,63.1,30z"/>
	<path class="st4" d="M0.1,15c3.5,0.6,7.2,0.8,10.3,2.9c0.7,0.4,2,0.9,1.9,1.2c-1.1,6.3,3.3,3.7,6.1,3.9c0.8,0,2.1,0,2.3,0.5
		c2.5,4.8,7.6,5.2,13.2,7c-5.8,2.5-4,4.3-1,6.5c3.1,2.3,6.9,2.9,10.2,4.9c-4.4,2.8-9.1,1.1-13.7,1.3c-3.7-1.3-7.2-3.5-11.5-2.5
		c-0.8,0.2-1.7-0.3-2.3-0.8c-4.5-4.6-11-6.2-15.5-10.8C0.1,24.3,0.1,19.7,0.1,15z"/>
	<path class="st5" d="M208.1,116c0-1,0-2,0-3c0.7-1.1,1.5-1.9,2.8-2.1c4.7-2.8,9.9-4.7,12.7-9.9c1.9-3.4,4.2-2.1,6.5-0.2
		c-1.2,4.3,2.6,5.4,4.9,7.4c1.1,1.2,2.4,2.1,3.9,1.5c5.1-2,4.4,1.1,3.8,4.1c-0.5,1.1-1.4,1.9-2.5,2.4c-1.7,0.2-2.7-1-3.9-1.8
		c-3-2.1,0,1.8-1.4,1.3c-1.3,1.6-1.1,2.9,0.8,3.8c1.5,1.9,2,4-0.5,5.3c-2.5,1.3,0.3,2,0.1,3c0,3.5-2.9,4.5-5.1,6c-1.3,0-2.7,0-4,0
		c0.1-1.6-0.4-3.5,1.3-4.5c3.3-2-0.1-4-0.1-5.9c0-1.2-2.2,0.6-3.5,1.1c-2.2,0.9-4.7,0.9-6.7,2.3c-0.3-0.4-0.5-0.9-0.9-1.2
		c-5.6-4.2-5.6-4.4-1.2-10.3C212.6,115.9,210.4,118.2,208.1,116z"/>
	<path class="st6" d="M293.1,113c0,6.2-0.1,12.3,0.1,18.5c0.1,2.2-0.4,2.6-2.6,2.6c-8.8-0.2-17.7-0.1-26.5-0.1
		c-1.3-1.3-0.8-2.7,0.2-3.9c0.9-1.2,0.8-2.3,0.5-3.6c1.5-3.1,0.9-7.1,3.8-9.7c0.4,0.5,1.4,1,1.6,0.6c1.1-1.8,2.7-2.8,4.7-3.1
		c0.7,0,1.4,0.2,2,0.7c0.4,0.3,0.7,0.7,0.9,1.1c0.6,1.3,1,2.6,0.9,4c-0.7,1.5,0.1,2.5,1.3,3.4c0.9-1.2-0.8-2.8,0.7-3.8
		c3.6-2,3.7-6.2,6.1-9c0.9-0.8,1.9-1.2,3.1-1.1C290.8,110.9,292.9,111,293.1,113z"/>
	<path class="st7" d="M0.1,96c0-3,0-6,0-9c3.5-2.1,4.8,1.8,7.2,2.7c0.8,0.5,1.6,0.9,2.4,1.2c1.3,0.5,2.6,0.9,3.7,1.7
		c1.8,0.9,2.1,4.9,5.5,2.7c1.7-1.2,3.9,0.5,5.6-0.7c0.5-0.4,1.1-0.7,1.8-0.8c2.3,0.7,2.5,3.5,4.4,4.6c0.5,0.5,0.8,1.1,0.7,1.8
		c-0.6,1.7-0.7,3.4,0.2,5.1c0.2,0.9,0,1.7-0.8,2.3c-1.7,1.4-1.3,3.6-2.1,5.4c-0.8,1.5-1.2,3.8-3.7,2c-0.4-2.2-2.3-2.8-4-3.6
		c-1.7-1.1-3.1-0.2-4.5,0.7c-1.8,0.2-3.4,0.2-3.7-2.1c0.9-1.9,1.4-4,1.2-6.1c-0.3,1.8,0.1,3.9-1.3,5.4c-1.4,0.7-2.1-0.4-3.1-1
		c-1-0.8-2.5-1.3-2.5-3c0.4-1.3,1.5-2,2.3-3.2c-1.5-1.2-3.5-1.3-5-2.4C3.6,97.3,2.5,95.9,0.1,96z"/>
	<path class="st8" d="M92.1,134c-7.3,0-14.7,0-22,0c-2-1.6-4-1.6-6,0c-0.7,0-1.3,0-2,0c-1.1-0.9-1.1-2.2-1.2-3.8
		c0.1-0.3-1,0.4-0.4,0.3c0.3-0.1,0.2,0.1,0.1,0.5c-0.3,4-4.3,0.9-5.6,3c-3.3,0-6.7,0-10,0c-0.5-1.3-0.7-2.9-2.8-2.6
		c-1.3,0-2.7,0.1-2.7-1.8c0.5-0.6,0.6-1.2,0.1-1.9c0-0.9,0.5-1.6,1.3-2.1c1.4-0.5,2.8-1.1,4.3-1.2c1.1,0,2.1-0.5,3-1
		c0.9-0.3,1.8-0.3,2.6,0.2c1.4,0.6-0.8,3,1.6,3c2.7,0.9,4.7-0.7,6.9-1.8c3.3-5.4,6.6-5.5,9.9,0.2c1.2,2.1,2.2,3.6,4.8,3.2
		c2.3-0.4,4.7-0.1,6.6-1.8c0.5-0.5,1-0.9,1.7-1.1c4.6,0.6,1.5,3.2,1.3,5.1c1.3,0.7,1.3-1.3,2.4-1.1c1.3-0.1,2.1,0.7,3,1.5
		C89.9,132.1,92.4,131.7,92.1,134z"/>
	<path class="st9" d="M0.1,29c5.4,1.9,10.2,4.9,14.5,8.4c1.8,1.5,2.9,2.6,5.5,1.8c3.1-0.9,5.7,0.7,8,2.8c-4,3-8,0.6-11.1,0.4
		c1.7,0.5,4.6,1.2,2.2,5c-2.9,1.5-5.8,1.3-8.7,0.3c-1.6-3.1-3.9-5-7.7-4.5c-1,0.1-1.9-0.5-2.6-1.2C0.1,37.7,0.1,33.3,0.1,29z"/>
	<path class="st10" d="M129.1,134c-1.3,0-2.7,0-4,0c-2.4-4-1.2-8.4-1.3-12.6c1.4-3,2.6-6.1,3.1-9.5c2.2-1.1,2.8-3,3.3-5.2
		c0.4-2,0.7-4.5,4-3.8c2.6,4.8,1.3,10.3,2.3,15.3c0,0.8-0.2,1.6-0.5,2.3c-1.5,2.6,0.1,5.8-1.8,8.4
		C132.7,130.9,131.4,132.9,129.1,134z"/>
	<path class="st11" d="M268.1,61c8.4,0.2,16.7,0.9,25,2c0,4.7,0,9.3,0,14c-3.1,0.2-6.2,0.5-6-4c0-0.8,1.4-1.4,0.5-2.3
		c-0.3-0.3-1,0.5-1.5,0.8c-1.2,0.6-2.5,0.8-3.8,1.1c-1.6,0.3-3.1-0.1-4.7-0.1c-1.7-0.3-3-1.2-3.3-3.1c-0.6-3-1.9-5.5-5.3-6.1
		C268.2,62.8,267.6,62.1,268.1,61z"/>
	<path class="st12" d="M282.1,71.9c1.1-1.3,2.7-0.7,4-0.9c0.5,0.8,1.3,1.4,2,2.1c-0.6,4.2,3.7,2.2,5,4c0,0.3,0,0.7,0,1
		c-3.9,0.9-7.7,2.4-11,1.6c0.9,0.3,2.7,0.6,4.6,0c1.7-0.6,3.3-0.4,4.3,1.2c1.1,1.7,1.4,3.3-0.3,4.8c-1.3,0.8-2.7,1.3-4.3,1.2
		c-1.9-0.5-3.4-2-5.8,0.3c-2.3,2.2-5.9,1.5-8.6-0.8c-0.4-0.6-0.6-1.3-0.5-2c0.1-2.6,0.3-5.3,3.7-5.9c0-1-1.6-1.4-1-2.7
		c1.4-1.2,3.3-1.4,4.8-2.2C280,73.2,281.6,73.5,282.1,71.9z"/>
	<path class="st13" d="M135.1,121.1c0-0.7,0-1.4,0.1-2.1c0.1-0.1,0.3-0.3,0.3-0.4c-0.6-3.2,3.7-2.1,3.5-3.5
		c-0.1-1.1-2.8-1.9-2.5-3.9c0.3-2.2,1.6-4,3.4-5.3c0.9-0.6,1.9-0.8,2.8-0.2c1.9,1.2,0.2,3.1,0.7,4.6c1.5,3.5,2.4,7,0.8,10.8
		c0,0.4,0,0.7,0,1.1c1.3,2.1,1.7,4.5,1.9,7c0,0.3,0,0.6,0,1c-0.9,1.7-2.2,3.1-4,4c-1,0-2,0-3,0c-3.1-1.6-1.7-5.3-3.4-7.5
		C135.3,124.7,135.2,122.9,135.1,121.1z"/>
	<path class="st14" d="M92.1,134c-0.9-1.6-3.1-0.4-4-2c0.6-1.7,0.3-3.7,1.8-5.1c0.6-0.3,1.5,0.1,1.9-0.2c0.9-0.6-0.3-0.8-0.6-1.2
		c-1-1.5-2.9-2.4-2.8-4.5c-0.9-5.3,3.4-5.4,6.6-6.6c2.8-0.1,5.5-1.8,8.3-0.6c0.6,1.7,0.2,3.4-1.2,4.3c-3.5,2.3-3.7,5.2-2.2,8.7
		c0,0.2,0,0.4-0.1,0.4c-0.7,0.6-0.6,1.2,0.3,1.6c0.3,0.1,0.4,0.5,0.5,0.8c0,1.9-1.1,3.1-2.3,4.3C96.1,134,94.1,134,92.1,134z"/>
	<path class="st15" d="M269.1,117c-2.3,3-1,7.3-3.9,10.1c0.1,2.5-2.1,4.4-2.1,6.9c-4,0-8,0-12,0c-1-1-0.6-2.2-0.4-3.4
		c0.1-0.9,0.1-1.8,0.1-2.7c0.4-2.1-1.7-3.7-1.2-5.8c3.4-3.2,5.6-3.4,5.5-0.7c-0.1,1.9-1,3.8-0.6,5.9c1.5,0.2,1.8-1.1,2.4-1.9
		c1.4-2,2.3-4.3,5.6-3.8c1.5,0.2,1.7-1.7,2.3-2.8c0.8-2.6,0.8-5.6,3.5-7.2c0.8-0.2,1.5-0.1,2,0.5C270.7,113.9,270.5,115.6,269.1,117
		z"/>
	<path class="st16" d="M0.1,58c0-3.3,0-6.7,0-10c2.9-2.1,5.9-1.5,9-0.9c1.8,0.8,2,2.4,2.2,4c0.1,1.5-0.6,2.7,2.4,2.9
		c3,0.2,1.4,3.9,1.1,6.1c-1.4,1.2-3.2,1.1-4.9,1.4c-2-0.1-3.9-0.3-5.8-0.7C2.5,60.3,1.3,59.2,0.1,58z"/>
	<path class="st17" d="M25.1,134c-5,0-10,0-15,0c-2-2.3-0.1-4.8-0.6-7.2c-0.1-2.7-2.2-3-4.1-3.5c-1.4-0.8-2-2.1-2.3-3.6
		c-0.2-1.8,0.2-3.5,1.6-4.8c2.1-0.6,2.2,1.3,3,2.3c0.8,3,3.4,1.8,5.2,2.3c2.5,1.6,2.5,4,1.9,6.5c0.1,0.9-2.3,0.8-0.8,2.3
		c0.5,0.5,0.7,1.7,1.5,0.3c0.9-0.8,1.4-1.9,2.3-2.7c0.8-0.3,1.7,0.8,2.5-0.3c0.9-0.2,1.7,0,2.5,0.1c1.3,0.2,2.7,0.3,3.5,1.6
		c0.4,1.3-0.5,1.8-1.5,2.2C24.3,131,26.7,132.5,25.1,134z"/>
	<path class="st18" d="M5.1,115.1c-0.3,1.7-0.6,3.4-1,5.2c-0.3,0.3-0.5,0.6-0.8,0.8c-0.8,0.7-1.3,1.5-2.1,2.1
		c-0.4,0.2-0.8,0.1-1.1-0.3c0-4.3,0-8.7,0-13c1.5-2.3,1.3-4.7,0-7c0-1.7,0-3.3,0-5c2.4-1.6,2.7,1.6,4.3,1.8c1.9,1.2,3.2,2.7,2.8,5.1
		c0.9,0.8,1.8,1.5,2.7,2.3c1.4,2.2-0.4,4.1-0.7,6.1C8.2,114.7,6.4,114.3,5.1,115.1z"/>
	<path class="st19" d="M189.1,119c2-1.2,3.2-0.7,4.3,1.4c1.6,3.2-1.7,1.2-2.2,2.2c-0.8,1.8-3.7,2.5-2.6,5.3c1.2,3.2-4.1,3-3.4,6
		c-0.7,0-1.3,0-2,0c-4.6-3.6-5-8.4-1.1-12.8c0.4-1,1.1-1.7,2.1-2.2C185.7,120.1,187.4,118.5,189.1,119z"/>
	<path class="st20" d="M0.1,79c0-3,0-6,0-9c1.7-1.3,3.7,0.8,5.4-0.3c1.6-1.6,3.9,0.3,5.5-1.3c1.2-0.8,2.3-2.8,3.8-0.4
		c0.3,2.6,0.1,5-1,7.4c-0.9,0.7-1.8,1.5-2.9,1.8c-1.4-0.1-2.1-1.4-3.2-2.1c0.1,1.9-0.4,3.2-1.8,4.1C3.9,79.7,1.8,81.9,0.1,79z"/>
	<path class="st21" d="M290.1,85c1.7-3.5,0.3-5.4-3.2-4.6c-2.5,0.6-4.5-0.3-6.7-1c4.5,0.9,8.3-3,12.8-1.4c0,5.7,0,11.3,0,17
		c-1.9,0.9-3.9,0.3-5.9,0.4c-1.4-0.9-2.6-1.9-3.4-3.4c-0.1-2,1.2-3,2.5-4.1c0.4-0.2,0.9-0.3,1.3-0.3c1,0.3,1.6,1,1.8,2.1
		C289.3,88.1,288.5,86.3,290.1,85z"/>
	<path class="st22" d="M174.1,134c0-2.6,0.9-5.6-3.3-6.6c4.7-1.7,6.6-5.5,4.2-9.2c-2.2-3.5-0.2-4.1,2.1-5.2c1.9,6.9,3.3,13.8,3,21
		C178.1,134,176.1,134,174.1,134z"/>
	<path class="st23" d="M180.1,134c-0.9-7-3.7-13.8-3-21c-0.7-3.3-1.4-6.6-2.1-9.8c-0.5-1,0.1-1.3,1-1.4c1.9,1.3,2.3,3.1,2,5.3
		c1.4,4.7,0.5,10,3.9,14.1c-1.8,4.5-1.8,8.8,1.1,12.8C182.1,134,181.1,134,180.1,134z"/>
	<path class="st24" d="M246.1,134c-3.7,0-7.3,0-11,0c-1.5-2.7,1.1-3.8,2.2-5.5c1.5-1.5,2.6-3.4,4.8-4.1c1.3-0.3,2.4,0.1,3.4,0.8
		c1.6,1.5,0.7,3.6,1.5,5.3C247.2,131.9,247,133,246.1,134z"/>
	<path class="st25" d="M293.1,113c-0.5-1.5-3-0.9-3-3c-2.5-0.7-3.2-3.9-6-4.2c-0.4-0.1-0.8-0.4-1.2-0.7c-0.2-0.8,0.2-1.3,0.7-1.8
		c2-1.4,4.8-1.8,5.7-4.6c1-1,0.8-4.7,3.7-1.7C293.1,102.3,293.1,107.7,293.1,113z"/>
	<path class="st26" d="M121.1,134c-0.3,0-0.7,0-1,0c-1.3-2.3-2.7-1-4,0c-1.7,0-3.3,0-5,0c-0.2-3.6,3.7-4.8,4.4-7.9
		c1.1-2.3,3.7-0.1,5.1-1.7c0.5-0.1,1-0.1,1.4,0C125.1,127.9,122.6,130.9,121.1,134z"/>
	<path class="st27" d="M246,130c-2.1-1,0.2-3-1-4.2c-0.4-1.5-1.2-2.9,0.2-4.3c1.7-0.7,3.4-1.9,4.8,0.5c0.7,2,2.9,3.5,1.8,6
		c-2.1,1-0.2,1.9,0,2.9c-0.3,1-0.5,2.1-0.8,3.1c-0.7,0-1.3,0-2,0C247.8,132.9,248.1,130.6,246,130z"/>
	<path class="st28" d="M0.1,79c1.6,2.7,3.5-2.3,5.1,0.1c0.2,0.4,0.4,0.8,0.3,1.3C5.6,84,8.7,87.1,7.1,91c-2.5-0.9-3.8-4.2-7-4
		C0.1,84.3,0.1,81.7,0.1,79z"/>
	<path class="st29" d="M40,129.1c0,1.8,1,1.4,2,0.9c1.1,1.3,1.1,2.7,0,4c-1.3,0-2.7,0-4,0c-1.2-1.5-3.4-1.6-4.5-3.1
		c-0.4-0.6-0.6-1.3-0.7-2.1c0.3-2.6-1.5-5.4,0.4-7.9c2.8-0.2,4.1,1.6,4.8,3.9C38.5,126.4,38.4,128.1,40,129.1z"/>
	<path class="st30" d="M135.1,121.1c2.7,1.2,0.9,3.3,1.1,5c1.2,2.7,1.5,5.3,0,8c-2.3,0-4.7,0-7,0c2.4-3.8,6.5-7,4.8-12.4
		C133.8,121.5,134.6,121.2,135.1,121.1z"/>
	<path class="st31" d="M3.3,120.3c0.3-0.1,0.6-0.1,0.8,0c0.7,0.9,1.3,1.8,2,2.7c2.6-0.6,1.9,3,3.9,3.1c2.2,2.6-0.7,5.3,0,7.9
		c-1,0-2,0-3,0c-1.5-2.9-3.6-5.5-4.3-8.7C2.5,123.6,1.5,121.8,3.3,120.3z"/>
	<path class="st32" d="M121.1,134c-0.5-2.3,1-4.3,1.1-6.6c0-1.1,0.8-2.3-1.1-2.5c-0.9-4-0.1-4.8,3.9-3.9c0,4.3,0.1,8.6,0.1,13
		C123.8,134,122.4,134,121.1,134z"/>
	<path class="st17" d="M3.3,120.3c0.6,2.9-0.1,6.2,2.9,8.5c1.6,1.3,0.6,3.5,1,5.2c-2,0-4-0.1-6,0c-2,0.1-0.6-1.4-1-2
		c2.7-2.8,1.1-6,0.9-9.1C1.2,121.5,1.8,120.5,3.3,120.3z"/>
	<path class="st33" d="M116,126c0.5,4-3.7,5-4.9,8c-1.7,0-3.3,0-5,0c-0.5-2.2,0.8-3.7,1.9-5.3c1.2-0.6,2.7,0,3.5-1.8
		C112.4,125.3,114.2,124.5,116,126z"/>
	<path class="st34" d="M6,71c-2.3,1.6-4-0.3-5.9-1c0-2,0-4,0-6c1.6-1.4,3.4-1.4,5.3-0.8c0.4,0.2,1,1,1,1C2.6,66.3,8.1,68.9,6,71z"/>
	<path class="st35" d="M0.1,47c0-1,0-2,0-3c2.6-2.9,5.6-0.8,8.3-0.4c1.6,0.2,1.5,2.3,0.6,3.7C6,47.5,3,47.9,0.1,47z"/>
	<path class="st36" d="M6.1,64.1c-2,0-4,0-6-0.1c0-2,0-4,0-6c2.2-0.5,2.9,1.7,4.4,2.4c1.2,0.2,2.2,0.4,2.3,1.9
		C6.8,63,6.7,63.6,6.1,64.1z"/>
	<path class="st37" d="M0.1,47c3,0,6,0,8.9-0.1c0.4-0.4,0.7-0.4,1.1,0c3,0,5.9,0,8.9,0c0.5-0.4,1-0.7,1.5-0.9
		c2.3-0.5,4.6-0.7,6.9,0.4c0.8,0.7,1.3,1.4,0.1,2.2c-5.9,1.1-11.7,1.9-17.5-0.4c-3.3-0.1-6.7-0.1-10-0.2C0.1,47.7,0.1,47.3,0.1,47z"
		/>
	<path class="st38" d="M24.1,128.1c0.7,0.2,1.5,1.1,2.2-0.1c1-0.4,1.9,0,2.8,0.5c1.7,1.5,3.5,2.9,2.1,5.6c-1.3,0-2.7,0-4,0
		C26.2,131.9,23,131.1,24.1,128.1z"/>
	<path class="st39" d="M1,122.9c2.8,3.4,2.5,7.2-0.9,9.1c0-3,0-6,0-9C0.4,123,0.7,122.9,1,122.9z"/>
	<path class="st40" d="M237.4,128.9c-0.8,1.7-1.5,3.4-2.3,5.1c-1.7,0-3.3,0-5,0c1.7-2,3.3-4,5-6c0.2-0.1,0.4-0.3,0.5-0.4
		C236.6,127.5,237.3,127.7,237.4,128.9z"/>
	<path class="st41" d="M31.1,134c0.1-2.3-1.1-3.9-3-5c-0.5-0.5-0.6-1.1-0.4-1.8c0.3-0.4,0.7-0.6,1.1-0.7c2.2-0.2,3.8,1,5.3,2.5
		c0,0.6-0.1,1.3-0.1,1.9c0.2,1,0.9,2,0.1,3.1C33.1,134,32.1,134,31.1,134z"/>
	<path class="st42" d="M10.1,46.9c-0.4,0-0.7,0-1.1,0C7.5,41.5,3.4,44,0.1,44c0-0.7,0-1.3,0-2c1.6,0,3.3,0.2,4.9,0
		C8.9,41.4,10.8,42.8,10.1,46.9z"/>
	<path class="st43" d="M55.1,134c0.2-0.8-0.3-2.8,0.9-2.2c5.5,2.9,3.3-2.3,4.7-4.3c1.3,2.2,1.4,4.3,1.4,6.5
		C59.8,134,57.4,134,55.1,134z"/>
	<path class="st44" d="M293.1,97c-2.5-1.5-1.7,1.6-2.8,2c-0.9,0.1-1.7-0.1-2.4-0.6c-0.3-0.3-0.6-0.6-0.9-0.9
		c-0.1-0.9-2.6-1.8,0.1-2.5c2-1.5,4-1.3,6,0.1C293.1,95.7,293.1,96.3,293.1,97z"/>
	<path class="st45" d="M108.1,128.9c0.3,2.1-1,3.5-2,5.1c-1.7,0-3.3,0-5,0c-1-1.4-0.2-2.1,0.9-2.8c1.6-0.5,3.2-1.2,4.2-2.7
		c0.3-0.3,0.6-0.6,1-0.7C107.9,127.8,108.4,128.1,108.1,128.9z"/>
	<path class="st46" d="M136.1,134c0-2.7,0-5.3,0-8c3.5,1.7,0.8,5.7,3,8C138.1,134,137.1,134,136.1,134z"/>
	<path class="st47" d="M142.1,134c1.2-1.4,1.6-3.7,4-4c0.6,1.4,2.1,2.3,2,4C146.1,134,144.1,134,142.1,134z"/>
	<path class="st48" d="M246,130c0.2-0.7,0.9-1.9,0.9-1.7c0.4,2,3.7,3,2.1,5.6c-1,0-2,0-3,0C246.1,132.7,246.1,131.4,246,130z"/>
	<path class="st49" d="M4,100.2c-2.8,1.9-1.6-3.3-3.9-2.2c0-0.7,0-1.3,0-2c3.4-1.9,3.9,0.1,4.1,2.9C4.5,99.4,4.5,99.8,4,100.2z"/>
	<path class="st50" d="M263.1,134c-0.3-2.6,0.2-5,2.1-6.9c2.3,0.3,2.4,1.6,0.9,2.8c-1.4,1.1-2.2,2.3-2,4.1
		C263.8,134,263.4,134,263.1,134z"/>
	<path class="st51" d="M42.1,134c0-1.3,0-2.7,0-4c2.1,0.5,5.5,0.1,3,4C44.1,134,43.1,134,42.1,134z"/>
	<path class="st52" d="M0.1,103c1.8,2.3,4.8,4.7,0,7C0.1,107.7,0.1,105.3,0.1,103z"/>
	<path class="st53" d="M34.1,134c-0.2-1-1.7-2-0.1-3.1c2.1,0,3.9,0.4,4.1,3.1C36.8,134,35.4,134,34.1,134z"/>
	<path class="st54" d="M64.1,134c2-3,4-4.5,6,0C68.1,134,66.1,134,64.1,134z"/>
	<path class="st55" d="M103.1,132c-1.2,0.2-2.1,0.6-2,2c-1,0-2,0-3,0c0.1-1.6,0.7-3,2-4C101.5,130,103.1,129.7,103.1,132z"/>
	<path class="st56" d="M116.1,134c0.7-1.5,1.3-3.1,3.7-3.5c0.1,1.1,0.2,2.3,0.3,3.5C118.8,134,117.4,134,116.1,134z"/>
	<path class="st57" d="M24.1,128.1c-0.1,2.5,3.2,3.4,3,5.9c-0.7,0-1.3,0-2,0c0.2-1.9-1.6-2.8-2.2-4.2
		C22.4,128.6,22.6,127.9,24.1,128.1z"/>
	<path class="st58" d="M207.1,103c-3.6-1.1-9.6,4.9-7.4,8.1c2.8,4.2-0.5,4.3-2.7,6c0.5-4.1-0.2-7.7-4.5-11.2
		c3.3,0.8,5.6,1.4,6.4-1.4c0.1-0.5,0.5-0.9,0.7-1.3c0.8-2.1,4.1-1.8,4.1-4.5c0-0.2-1-0.7-1.2-0.6c-2.1,1.8-5.4,2.4-6,5.8
		c-0.1-2.3-3.6-5.7,2.6-5.9c-4.3-3.1-5.6-6.9-5.5-11.6c-1.8,1.7-3.7,3-1.9,5.7c1.6,2.5-1.3,3.8-1.6,5.8l0,0
		c-0.2,0.2-0.5,0.4-0.7,0.6c-2,1.7-3.6,5.3-6.5,1c-0.4-0.5-1.4-0.6-2.8-1.2c1.2,2.4,2.6,4.3,2,6.6c-0.9,0.9-1.9,1.6-3.3,1
		c-2.7-4.3-1.3-9.4-2.8-14c-0.6-1.9,1.3-2.8,3.1-3.1c1.2-0.2,2.8,0.4,2.6-1.8c0.6-1,0.1-1.7-0.4-2.7c-2.6-4.2-2.5-4.4,2.5-4.7
		c2.3-0.1,2.8-2.1,4.2-3.1c1.6-0.2,2.9,0.9,2.5,2.1c-0.9,2.5,1.4,1.3,1.9,2.1c0.6,1.5,1.2,2.5,3.3,2.6c3.2,0.1,6.6-0.1,8.8,3.2
		c1.3,2,3.7-1.7,5.2,0.7c0.8,3.8,4.3,1.9,6.4,3c0.6,0.3,1.1,0.8,1.4,1.5c0.8,2.3-2.8,4-0.9,6.4c-0.8,2.4-2.4,3.9-4.8,4.4
		C210.1,102,208.7,103.5,207.1,103z"/>
	<path class="st59" d="M208.1,116c2,0.1,4.1,0.1,5.5-1.5c1.4-1.6,2.7-1.3,3.7,0c1.2,1.5-0.9,1.8-1.6,2.4c-3.1,2.6-4.1,5.1,0.1,7.6
		c0.9,0.6,1.2,1.5,1.3,2.5c-3.8,0.9-6.5,1.3-9.6-3C204.7,120.2,205.7,118.5,208.1,116z"/>
	<path class="st60" d="M182.1,87c0,1,0.5,1.8,2,3c-2.1,0-3.2,0-4.3,0c-2.4,0.1-3.3,0.3-2.3,3.5c1.3,3.9,1.1,8.3,1.6,12.5
		c0.3,0.2,0.5,0.4,0.4,0.6c-0.1,0.2-0.2,0.3-0.3,0.3c-0.4,0-0.7,0.1-1.1,0.1c-0.7-1.7-1.4-3.3-2.1-5c-2.6-4.6-2-9.9-2.8-14.9
		c-0.4-2.4,1.4-4,4-4.1C179.5,83.4,181.2,84.7,182.1,87z"/>
	<path class="st61" d="M207.1,103c1.3-0.5,2.2-2.4,3.9-1c1,3.3,0.9,6.6,0,9.9c-1,0.3-2,0.7-3,1c0.2-3.3-0.6-5.9-4.2-6.7
		C203.7,103.7,208.6,106.7,207.1,103z"/>
	<path class="st62" d="M189.1,119c-1.7,0.6-3.3,4.1-5,0c0.4-0.7-1.9-2.5,0.4-1.9C185.9,117.5,188,117.3,189.1,119z"/>
	<path class="st58" d="M190.1,98c1.8,0.1,3,1.1,3.7,2.8C190.8,102.2,189.7,101,190.1,98L190.1,98z"/>
	<path class="st63" d="M179.1,106.9c0-0.3,0-0.6,0-0.9c1-0.3,2-0.7,3-1c0.9,1.7,0.2,3.1-0.6,4.6
		C179.4,109.8,181.5,106.4,179.1,106.9z"/>
	<path class="st64" d="M142.1,110c-2.3-1.2,2.4-3.1-0.2-3.7c-2.7-0.6-3.1,2.5-4.2,4.1c-1,1.5-0.2,2.8,1.5,3.5
		c1.1,0.4,2.9-0.2,2.8,1.9c-2-0.4-3.5,2.3-4.7,1.8c-2.3-1.1-1,1.8-2.1,1.4c-1.1-5.3-0.1-10.8-2-16c-0.8-0.9-0.5-1.6,0.3-2.2
		c1.8,0.8,1.4-1.2,2.1-1.7c2.9-4.5,4.9-5,8.5-1.8c0.5,0.4,0.8,0.7,0.3,0.2c-0.1-0.1,0.1-0.6,0.2-0.9c3.2-3.9-1.1-7.7,0-11.7
		c0.2-0.9-0.3-1.9-0.1-2.9c1.5-2.6,3.4-1.4,4.9-0.2c1.8,1.4,1.9,3.3,0,5.1c2.4,0.2,3.6-1.4,5.2-2.1c2.7-1.2,4.9-1.2,6.9,1.5
		c2.5,3.4,5,2.9,7.2-0.8c1.5-2.5,3.2-3,4.4,0.3c-0.1,1.8,0.7,3.8-1.1,5.2c-1.7,3.7-5.5,6.3-6.3,10.5c-0.1,0.3-0.7,0.5-1.1,0.7
		c-2.4-4.6-4.2-0.6-6,0.5c-5,3.1-6.9,0-8.6-4.8c-1.1,1.9-0.8,3.1-0.3,4.3c1,2.6,3.3,5,0.8,7.9c0.5,0.3,1.1,0.6,1.6,0.9
		c1.1,0.8,1.5,1.7,1,3c-0.7,1.8-6.1-1.5-3.7,3.5c-1.1-0.2-2.2-0.3-3.3-0.5c-2,0.3-1.2-1.3-1.5-2.2C144.1,113,144.1,111,142.1,110z"
		/>
	<path class="st65" d="M171.9,91c0.1-1.9,0.2-3.9,0.3-5.8c0.2-0.6,0.3-1.2,0.7-1.8c0.4-0.5,0.9-1,1.4-1.4c1.8-1,1.3-4,3.8-4.2
		c0.8,0.6,1.3,1.4,1.4,2.4c0.1,1.5-0.1,2.9-1.5,3.8c-2.7,0-4.6,1.5-3.8,3.9c1.6,4.7-0.1,9.7,1.7,14.2c-0.3,0.4-0.6,0.7-0.9,1.1
		C174,99.1,173,95,171.9,91z"/>
	<path class="st66" d="M142.1,110c2.2-1,2.8,0.1,3,2.1c0.2,1.7-0.6,3.6,1,4.9c0.1,1.7-0.1,3.2-2,4C143.5,117.3,144,113.4,142.1,110z
		"/>
	<path class="st67" d="M159.4,110.8c2.4-1.9,2.4-5,5.5-6.4C164.7,108.1,165.1,111.5,159.4,110.8z"/>
	<path class="st68" d="M153.1,114c-0.3-1-0.7-2-1-3c1.7-1.5,4.4-1.7,4.9,0.1C157.7,113.2,154.7,113.3,153.1,114z"/>
	<path class="st66" d="M146.1,129c-0.9-2.3-2-4.4-1.9-7C147.5,123.6,146.3,126.5,146.1,129z"/>
	<path class="st69" d="M47,43c0.4,0,0.8,0,1.2,0c0.4-0.3,0.7-0.8,1.2-0.8c6.6-0.5,13.1-1.8,19.7-1.1c1.9,1.2,4,0.5,6,1
		c-0.3,2.7-2.5,2.1-4.1,2.3c-2.4,0.3-4.8-0.2-7.2,0.3c3.8,0.9,4.3,2.5,2.5,8c-2.1,2.3-4.4,3.4-7.4,1.7c-0.2-0.3-0.4-0.5-0.6-0.8
		c-1.3-2.1,0.7-5.6-2-6.6c-3-1.2-6.5-0.7-9.7,0.3c-2.4,0.2-4.8,0.7-6.9-1.1c-0.8-2.3-0.2-3.6,2.4-3.5C43.8,42.6,45.4,42.1,47,43z"/>
	<path class="st70" d="M70.1,35c-1.4-2.4,0.6-3.1,2-4c1-1.1,2.3-1.1,3.6-0.8c2.9,1.7,6,3.2,9.5,1.9c3.3,0.4,5.9,2.8,9.2,3.3
		c2,1.4,4.2,0.3,6.3,0.4c1.3,0.1,3-0.1,3.2,1.6c0.1,1.4-1.5,1.5-2.5,1.9c-3.1,1.4-6.5,0.5-9.7,1.2c-0.6,0.1,0,0.3,0,0.3
		c3.3-1,3.3,0.8,2.6,3.1c-1.7,1.2-3.8,2-4.3,4.5c-0.2,0.8-0.8,1.6-1.8,1.3c-0.9-0.2-1.2-1.1-1.3-1.9c-0.4-2.5-0.4-4.9,0-7.4
		c0.3-1.2,1.1-1.9,2.2-2.5c-4.8,0.3-9.5,1.7-14.2,0c-0.3,0-0.7,0-1,0C73.5,36,70.2,37.7,70.1,35z"/>
	<path class="st71" d="M75.1,38c5.4-0.6,10.7-1.2,16.2-0.9c-0.1,2.5-2.6,1.5-3.2,2.9c-2.3,1.4-4.8-1.5-7.1,0.3
		c-0.7,0.2-0.1,0.9-0.4,0.3c0-0.1,0.1-0.1,0.4-0.2c2.1-0.9,3.9-1,4.5,1.8c-1.2,2.5-3.6,2.2-5.7,2.6c-3.7-0.4-6.8,1.9-10.4,2.4
		c-1.9,0.3-0.7,3.3-2,4.7c-0.4,0.3-0.8,0.3-1.3,0.1c0-3.6,1.2-8-5.9-7c5.3-2.5,10.4-1,14.9-3C75.4,40.7,71.5,39.3,75.1,38z"/>
	<path class="st72" d="M47,43c-2.3,1.1-6.5-2.4-6.9,3.1c-0.4,0.2-0.9,0.2-1.3,0c-0.6-0.4,0.2,0-0.4-0.3c-2.9-1.7-15.5-0.8-18.2,1.2
		c-0.4,0-0.7,0-1.1,0c0.7-3.2-1-4.5-3.9-5c4.3,0,8.6,0,12.9,0c5,0,10-0.1,15-0.1C44.4,42.2,46,41.5,47,43z"/>
	<path class="st70" d="M64.1,32c2.1-0.2,3.2,0.7,3,2.9c0,1.3,2.8,0,2,2.1c-3.9-0.2-7.9,0-11.1-3C59.1,30.3,62.1,32.7,64.1,32z"/>
	<path class="st73" d="M64.1,32c-1.5,2.2-4.5-0.1-6,2c-2.6-0.3-3.5-2.5-2.9-4.2c0.6-1.9,2.6-0.5,4.1-0.2c1.3,0.3,2.6,0.4,3.9,0.5
		C63.1,30.8,63.3,31.6,64.1,32z"/>
	<path class="st71" d="M69.1,41c-7,0.6-13.9,1.3-20.9,1.9c0.1-0.9,0.4-1.7,1.4-1.8c6.4-0.5,12.8-1,19.2-1.5c0.2,0,0.6,0.3,0.7,0.6
		C69.5,40.4,69.2,40.7,69.1,41z"/>
	<path class="st74" d="M48.1,27c2,0.3,4.2-0.8,6,1C52.1,27.8,49.2,32.7,48.1,27z"/>
	<path class="st71" d="M69.1,37c-0.1-1.3-2.8,0-2-2.1c1,0.1,2,0.1,2.9,0.2c0.3,2.3,4.9-1.1,4,3C72.4,37.6,70.8,37.3,69.1,37z"/>
	<path class="st75" d="M220.9,26c0.1,0.6,0.2,1.3,0.3,1.9c-0.7,2.1-0.6,5-4.2,3.7c-2-1.5-3.5,0.2-5.2,0.9
		c-7.2,0.5-12.2-3.7-17.2-7.9c-0.3-0.2-1-1-1.1-0.6c-1.5,5.7-5.5,1.2-8.1,1.8c-1,0.3-1.4-1.9-0.7-2.8c1.3-1.7,0.5-3.5,0.5-5.3
		c0.1-0.5,0.3-0.9,0.6-1.3c2.4-2.2,4.9-3.4,8.1-1.7c4.2,1.5,7.6-1.1,11.3-2c0.2,0,0.4-0.1,0.7-0.1c1,0.7,2.1-0.8,3.1,0.2
		c1.4,1.9,3.1,3.5,5.4,4.3c0.7,1.6,2.7,2.7,1.8,4.9c-0.8,1.1-2.5,0.7-3.9,2.6C216.1,22.9,218.9,22.8,220.9,26z"/>
	<path class="st76" d="M212.1,13.1c0.1,2,2.6,2.2,3,3.9c-0.1,0.4-0.4,0.8-0.7,1.1c-2.9-0.5-5.5-1.4-5.3-5.1
		C210.1,13,211.1,13.1,212.1,13.1z"/>
	<path class="st74" d="M56,15.2c2.7,0.9,5.4,1.9,8.1,2.8c1.8,1.3,3.8,0.7,5.8,0.6c3.5-0.3,7,0,10.2,1.4l0,0c1.5,1.6,2.9,3.2,5.2,3.5
		c1.8,1.5,4,1.7,6.1,2.4c1.3,0.5,2.7,0.9,4,1.4c3.3,2.3,6.4,4.9,10,6.8c0,0.9-0.6,1.3-1.3,1.7c-2.5,0.3-5.1,0.2-7.6,0.6
		c-1.7-2.6-2.6-6.7-7.2-3.7c-0.9,0.3-1.8,0-2.7-0.2C83,32,79.7,30.6,76.1,31c-1.3,0-2.7,0-4,0c-2.9-0.1-6.9,1-5.1-4.5
		c0.2-0.7,0-2.1-0.8-2.1c-2.5,0.2-5.7-1.7-6.4-1.5c-4.3,1.6-5.4-2.4-6.8-4.1C50.2,15.5,55.2,16.7,56,15.2z"/>
	<path class="st77" d="M16.1,7.1c2,1,4,1.9,6.1,2.9c-6.4,0-12.8,0-19.2-0.1C7,7.5,11.3,6.3,16.1,7.1z"/>
	<path class="st78" d="M211.1,112c-1.3-3.3-1.3-6.6,0-9.9c2.2-0.7,3.7-2.3,5-4.1c-0.8-2.6,1.6-3.8,2.4-5.7c0.7-0.8,2.2-1.3,2.1-2.5
		c-0.1-1.3-2-2.9-0.2-3.9c2.3-1.3,4.4-2.9,6.8-3.9c1.3-0.5,2.1,0.6,2.4,1.8c-0.5,4.2,0,8.3,1,12.4c0,1.5,0.4,3-0.1,4.5
		c-0.2,0.1-0.3,0.3-0.5,0.4c-3-1.1-5.9-2.1-6,2.9c0,0.4-0.4,1.3-0.6,1.3C218,105.2,216.4,111.9,211.1,112z"/>
	<path class="st79" d="M234.3,109.2c-0.9-0.6-1.7-1.6-2.7-1.9c-3.9-1.3-4-3.5-1.7-6.4c0,0,0.3,0,0.3,0c2.5-0.2,4.8,0.7,7.1,1.5
		c2.2,0.8,0.8-1.7,1.9-1.7c2.6,0.2,2.9,2.3,3.6,4.2c0.1,0.8,0,1.5-0.3,2.2c-0.5,0.7-1.5,1.5-1.9,1.2c-1.7-1.4-2.5-0.5-3.5,0.8
		C236.4,110,235.3,109.7,234.3,109.2z"/>
	<path class="st80" d="M234.3,109.2c2.4-1,4.7-2.6,7.6-2.1c0.8,0,1.4,0.4,1.8,1.1c0.3,0.7,0.5,1.4,0.5,2.2c-0.3,1.3,0.5,3.2-1.9,3.3
		c-0.1-1.3-0.2-2.6-0.3-4.3C239,113.2,236.7,110.9,234.3,109.2z"/>
	<path class="st81" d="M234.2,115.9c0.2-1.1-0.6-2.5,0.4-3.1c0.9-0.5,2.1,0.4,2.9,1.2c0.8,0.8,1.6,1.5,2.4,2.3
		c0.9,0.5,0.9,1.3,0.7,2.2c-0.2,0.4-0.5,0.7-0.8,0.9c-1,0.4-1.9,0.8-3,1c-0.7-0.1-1.1-0.5-1.4-1.1
		C234.7,118.3,234.7,117,234.2,115.9z"/>
	<path class="st82" d="M240.1,119c0-0.9-0.1-1.8-0.1-2.7c0.4-1.2,1.3-2,2.4-2.5c1.1-1.1,0.4-2.5,0.8-3.7c1.9-0.4,2.6,0.9,3.3,2.3
		c-2,3-1.3,6.9-3.6,9.8C240.9,122.1,241.2,119.9,240.1,119z"/>
	<path class="st83" d="M236.1,119c0.3,0.3,0.7,0.6,1,0.9c0.9,0.6,1.2,1.7,1.7,2.6c0.3,0.6,0.6,1.2,0.6,1.8c-0.4,2.4-3.3,2-4.3,3.6
		c0,0-0.1,0-0.1,0c-2.5-1.2-4.3-2.2,0-3.8c2.1-0.8,0.7-2.8,0-4.2C234.8,119.1,235.2,118.8,236.1,119z"/>
	<path class="st82" d="M236.1,119c-0.3,0.3-0.7,0.6-1,1c-0.8-0.9-2.6,0.2-3-1.6c-0.4-1.9,1.5-1.6,2.1-2.5
		C235.3,116.7,236.1,117.6,236.1,119z"/>
	<path class="st84" d="M283.3,105c0.3,0,0.6,0,0.8,0.1c1.8,1.8,1.6,4,1.4,6.3c-0.6,1.5-1.8,3-3.3,2.2c-3.2-1.7-3.9,0.8-5.2,2.5
		c-0.7-0.3-1.3-0.7-2-1c-3-0.8-2.7-3.1-2.5-5.3c0.6-1.9,1.2-3.8,2.1-5.5c1-1.1,2.4-0.6,3.5-1.1c1.6,0,2.4-3.9,4.6-1
		C283.8,102.9,281.4,104.3,283.3,105z"/>
	<path class="st85" d="M277,116c0.2-3.2,0.1-6.6,4.9-3.3c1.6,1.1,2.1-1,3-1.8c0.7,0.1,1.4-0.4,2.1,0.1c-1.4,3.4-1.5,7.7-5.9,9.1
		c-0.2-0.1-0.3-0.3-0.5-0.4c-0.8-1.5-1.6-2.9-3.2-3.6L277,116z"/>
	<path class="st86" d="M273.1,110c0.8,1.6,0.4,3.7,2,5c-1.4,1.4-3.3,1.9-4.8,3.4c-1.9,1.8-0.5-1.1-1.3-1.4c0.2-1.7,0-3.5,1.3-4.9
		C270.6,110.5,271.3,109.5,273.1,110z"/>
	<path class="st87" d="M287.1,111c-0.7,0.2-1.4,1.1-2.1-0.1c-0.3-2-0.5-3.9-0.8-5.9c3.5-0.1,4.7,2.5,6,5
		C289.1,110.4,288.1,110.7,287.1,111z"/>
	<path class="st85" d="M281.2,120.1c-0.6,2,1.1,4.3-2.3,7c3.1-3.9-6.1-3.2-0.7-7.2c1-0.8,1.9-0.7,2.9,0L281.2,120.1z"/>
	<path class="st88" d="M281,119.9c-1,0-1.9,0-2.9,0c-0.8-1.2-1.2-2.4-0.8-3.8C281.3,114.9,281.1,117.4,281,119.9z"/>
	<path class="st89" d="M222.2,32c-0.1,2,0.2,4.2-1.1,6c0.4,2.1-0.4,3.9-2.4,4c-2.3,0.2-1.9-2.1-2.1-3.7c-0.2-1.4-1.5-2.6-1.2-4.2
		c0.2-1.2,0.5-2.3,1.4-3.1c3.2,1.4,2.5-2.7,4.4-3.1C222.3,29.1,222,30.6,222.2,32z"/>
	<path class="st90" d="M220.9,26c-2.2,0-4.4-3.9-6.9,0.2c-0.5,0.8-3.5-0.9-3.6-3.5c1.9-0.2,3.8-0.5,5.7-0.7c1.5-1.1,2.2,0.2,3.1,1.1
		C220.5,23.6,221.1,24.6,220.9,26z"/>
	<path class="st91" d="M219.2,23c-1-0.4-2-0.7-3.1-1.1c-0.6-1.3-1.1-2.5-1.7-3.8c0.2-0.4,0.5-0.7,0.7-1.1c1.7,0.6,3,1.7,4.2,2.9
		C219.2,21,219.2,22,219.2,23z"/>
	<path class="st92" d="M103,114c-2.7,0.5-5.2,2.1-8.1,1.1c-4.7,0.5-8.6,2.1-10.1,7.1c-0.5,1.5-1.6,2.7-2.7,3.8c-0.3,0.3-0.7,0.7-1,1
		c-3.6-2-6.2-5.1-8.9-7.8c-0.3,1.8,1.5,1.9,2.8,2.8c1.5,1,2.8,2.4,2.8,4.5c-0.1,2.5-2.6,1.6-3.7,2.6c-2.8,0.9-5.2,1.3-5.7-2.8
		c-0.3-2.8-3.3-3.2-5-4.7c-0.7-0.6-2,0.3-1.7,1.5c0.4,1.6-0.3,2.5-1.7,3c-1.7-1.1-3.3-2.5-5-3.6c-1.3-1.3,0.8-3.9-1.8-4.7
		c-0.3-0.3-0.6-0.6-0.8-1c-0.1-0.2-0.1-0.3-0.1-0.5c-0.5-1.4,0.8-3.4-1.3-4.3c-2.2-0.9-2.2,1.9-3.7,2.4c-0.5,0.1-0.9,0.1-1.3-0.1
		c-1.3-1.8-0.3-5.3-3.9-5.5c-0.4,0-0.9-0.1-1.3-0.2c-1.7-0.3-2.3,0.9-3.2,1.9c-0.7,0.9-2.3,1.3-2.4,0.4c-0.5-3.8-2.6-0.8-3.9-1.2
		c-1.4-0.5-2.3-1.2-1-2.7c0.7-0.5,0.8-1.2,0.9-2c0.4-1.6-1.1-3.2,0-4.8c-0.3-0.4-0.6-0.7-0.9-1.1c-2-1.1-1.1-4.6-4-5
		c-0.3,0.3-0.6,0.7-1,1c-3-1.9-3.8-5.1-4.9-8.2c-0.2-0.8-0.3-1.5-0.4-2.3c1-5.7,2.3-6.3,7.3-3.6c0.2,1.9-0.6,4,1.5,5.4
		c-0.1-2-1.8-5.2,2.7-4.3c1.2,0.6,2.2,1.7,3.3,2.4c2.5,1.5,4.6,3.8,8,3.3c1.3-0.2,2,0.8,2.6,1.9c4,7.1,10.6,7.3,15.3,0.6
		c0.7-1,1.5-1.9,2.8-1.6c1.1,0.3,1.4,1.3,1.7,2.3c1.4,4.6-0.4,7.2-5.2,7.4c1.6,0.7,3.2,1.4,4.9,1.7c1.4,0.2,3.3,0.8,3.2-2.5
		c-0.1-3.3,3.1-1.5,3.7-0.5c2.3,4,5.8,3.6,9.4,3.4c1.2,0.3,2.3,0.6,3.2,1.5c-2.7,3.4-4.8,7.6-9.5,7.1c3.8-0.3,8.4,3,12.8-0.5
		c0.4-0.1,0.9-0.2,1.4-0.2c4.6-0.7,9.3-0.5,13.8-1.5c2.6-0.6,3.4,1.4,4.8,2.6C107.4,112.3,106.3,114.2,103,114z"/>
	<path class="st93" d="M22.1,127c-0.6-0.4-1.2-0.7-1.8-1.1c-1-0.5-1.2-1.4-1.4-2.4c-0.1-2.1,0-4.3-2.8-4.7c-0.7-0.3-1.1-0.8-1.3-1.5
		c0.5-2.3,1.4-4.4,2.4-6.4c0.8-2.7,2.5-1.1,3.9-0.9c0.4,2.1,1.1,4.1,2.4,5.8c0.1,2.8,2.8,2.8,4.3,4c2.4,2.3,2.1,4.8,0.4,7.3
		l-0.3-0.2c-2.2-0.6-5-0.4-5.4-3.6C22.4,124.5,23.3,125.9,22.1,127z"/>
	<path class="st94" d="M17.1,110.9c0.2,2.4,0.3,4.8-2.1,6.3c-0.8,1-1.7,1.9-2.6,2.8c-2.5,1.7-4.3,1.2-5.3-1.8
		c-0.1-2.1-0.3-4.2,2.1-5.3c-1.8-2.2,1.4-3.7,0.8-5.8c0.7,0.6,1.4,1.2,2.1,1.8c0.3-0.3,0.7-0.3,0.9,0.1
		C13.4,111.8,15.6,110.8,17.1,110.9z"/>
	<path class="st20" d="M7.1,91c-1.3-2.8-0.8-6.2-3.3-8.5C3.4,82,4.2,80.6,5,80c2.2,1.7,4-2.4,6.2-0.5c1,1,1.7,2.1,2.5,3.2
		c0.7,1,1.2,2,1.1,3.2c-0.1,0.4-0.3,0.9-0.6,1.2c-3.5-0.3-2.7,4-5.1,4.9C8.5,91.6,7.8,91.3,7.1,91z"/>
	<path class="st95" d="M27.1,119.9c-1.8-0.8-6.3,1.1-4-3.9c0.2-1.1,0.3-2.4,2-2c3.5,1.6,2-1.9,2.8-2.9c1-1.2-0.4-3.8,2.4-4.2
		c-0.1,1.4,0.5,2.1,1.9,2c-0.3,1.4-0.3,2.7,0.3,4C32.3,116.5,27.8,116.7,27.1,119.9z"/>
	<path class="st96" d="M14,87.3c0-0.4,0-0.8,0.1-1.2c2.5-1.4,3.1,0.7,3.7,2.2c0.8,1.7,1.3,3.6,1.9,5.4c0.1,0.8,0,1.6-0.5,2.2
		c-4.1,3.6-4.5-1.1-6.1-2.8C11.9,91,11.8,88.9,14,87.3z"/>
	<path class="st97" d="M19.2,96c-0.1-0.7-0.3-1.3-0.4-2c0.9-1.3,0.3-2.9,0.7-4.3c0.3-1.1,0.6-2.2,1.7-2.8c1.3,2.7,2.6,5.4,3.9,8.1
		C23.8,99.4,21,94.5,19.2,96z"/>
	<path class="st98" d="M4,100.2c0-0.5,0.1-0.9,0.1-1.4c0.7,0,1.6-0.2,1.9,0.2c1.3,1.2,4,0.1,4.5,2.2c0.5,2.3-2.1,2.5-3.3,3.6
		C6.2,103.3,5.1,101.8,4,100.2z"/>
	<path class="st99" d="M14,87.3c-0.3,2-0.7,3.9-1,5.9c-1.3-0.4-2.6-0.8-3.9-1.2c0.4-1.5,0.6-3.1,1.3-4.5
		C11.4,85.2,12.7,85.2,14,87.3z"/>
	<path class="st100" d="M25.1,114c-0.7,0.7-1.3,1.3-2,2c-2.4-1.4-3.8-3.2-2-6C22.2,111.5,26.1,110.3,25.1,114z"/>
	<path class="st101" d="M13,109.1c-0.3,0-0.6-0.1-0.9-0.1c0.8-2.7-0.7-5.8,1.9-8.5C15.7,103.7,15.4,106.5,13,109.1z"/>
	<path class="st102" d="M31.1,100.1c-0.1,1.6,2.2,3.2,0,4.8C29.1,103.4,29.1,101.7,31.1,100.1z"/>
	<path class="st103" d="M26.1,94c1.2-1.5,2.5-0.6,2.4,0.5c-0.1,1.9,1.9,2.8,1.6,4.5C27.5,98.4,27.6,95.5,26.1,94z"/>
	<path class="st104" d="M82.1,126c-0.5-2,1.1-2.9,2.1-4.1c1.5-1.1,3.1-1.8,5-0.8c0,2.3,3.4,2,3.2,4.4c-0.1,1.6,3.4,0.2,2.1,2.2
		c-1.3,2-2.8-0.4-4.2-0.7c-0.7,1.9-2.1,2.8-4.1,2.9c-0.7,3.6-2.8,2-4.5,1.2C80.1,129.2,87.6,128.4,82.1,126z"/>
	<path class="st105" d="M40,129.1c-1.9,0.8-3.2-0.1-2.9-1.9c0.6-3.1-1.8-4.3-3.1-6.2c-0.3-0.3-0.4-0.7-0.3-1.1
		c1-1.3,0.9-3.3,2.4-4.4c0.6-0.3,1.3-0.4,2-0.3c4.1,1.1,4.3,5.7,7.2,8c0.3,0.7,0.2,1.3-0.4,1.8c-1.3,0.2-2.2,2-3.8,1
		c-1.4-0.8-2-2.1-2.5-3.7c-0.4,0.4,0,0.7,0.2,0.9c0.8,1.5,0.2,3.3,1.3,4.7C41,128.5,40.6,128.8,40,129.1z"/>
	<path class="st106" d="M74.1,129c3.9-4,3.7-4.5-4.3-9.4c0.5-2,2.2-3.3,3.9-2.8c2.3,0.7,0.1,2-0.1,3c-0.1,0.3,0.4,1,0.8,1.1
		c3.3,0.9,4.7,3.8,6.7,6.1C79.8,131.4,76.4,128.1,74.1,129z"/>
	<path class="st107" d="M45.1,125c0-0.6,0-1.3-0.1-1.9c-3.1-4.6-5.4-9.5-5.1-15.2c0.4-0.3,0.9-0.3,1.3,0.1c0.3,0,0.5,0,0.8,0.1
		c2.8,1.5,3,4.7,4.4,7.1c0.7,1,1.4,1.9,1.8,3.1c0.4,2,0.5,3.9,0,5.9C47.8,126.9,46.2,125.4,45.1,125z"/>
	<path class="st108" d="M55.3,122c2.7,0.1,4,1.6,4.7,4c-2.7,0.1-4.8,4.4-8,1c-1.2-2.4,0.8-3.7,1.9-5.3
		C54.5,121.5,54.9,121.6,55.3,122z"/>
	<path class="st109" d="M40.2,128c-4.2-1.7-0.9-5.8-2.9-8.3c1.6,2,3.7,3.6,3.9,6.3C40.9,126.7,40.5,127.4,40.2,128z"/>
	<path class="st110" d="M48,124.1c-1.5-1.9-0.8-4-0.8-6.1c2.3-0.1,1.6,2.8,3.4,3.3c0.8,0.4,1.5,0.9,1.7,1.8
		c-0.2,0.7-0.5,1.2-1.4,0.8C50,124.1,49,124.1,48,124.1z"/>
	<path class="st111" d="M86.1,129.9c0.7-1.9,3-1.5,4.1-2.9c-0.2,1.9-0.5,3.7-2.2,4.9C87.4,131.3,86.8,130.6,86.1,129.9z"/>
	<path class="st112" d="M51,124c0.4-0.3,0.7-0.6,1.1-0.9c0.3-1,0.8-1.5,1.9-1.1c0.8,2.2-1.9,3.1-2,5c-0.6,0-1.5,0.3-1.7,0.1
		C49.6,126,50.7,125.1,51,124z"/>
	<path class="st113" d="M260.1,59.8c2.5,2.2,5.2-0.2,7.8,0.4c0.1,0.3,0.2,0.5,0.3,0.8c0.3,0.7,0.7,1.5,1,2.2
		c-0.6,2.3-2.5,2.2-3.9,1.6c-2.5-1.1-5.4-1.3-7.6-3.1c-0.5-0.6-1-1.3-0.1-1.9C258.3,59.1,259.2,59.3,260.1,59.8z"/>
	<path class="st114" d="M134,100.9c-0.3,0.7-0.6,1.4-0.9,2.1c-2,1.6-1.8,3.9-2.1,6.2c-0.3,2.1-0.7,4.5-3.9,2.8
		c-0.9,0.3-1.2-0.2-1.4-1c0-0.9,0.3-1.8,0.5-2.7c0.5-1.6,0.7-3.3,1.1-4.9c2.2-7.7,4.3-15.5,3.9-23.7c1.1-1.7,2.4-1.7,3.3,0
		c0.7,1.4,2.1,2,2.9,3.2c1,2.9-1.1,5.4-1.1,8.2C135.1,94.3,136.4,98,134,100.9z"/>
	<path class="st115" d="M126,111.2c0.3,0.3,0.7,0.6,1,0.8c1.2,3.4-0.5,6.2-2.1,9c-2.8-0.2-4.1,1.1-3.9,3.9c0,0-0.5,0-0.5,0l-0.5,0
		c-0.5,0.3-1.2,0.2-1.2-0.2c-0.1-2.8-1.4-5.4-1.4-8.2c1.8-1.5-0.5-2.3-0.7-3.4c-0.1-1.4-0.6-2.9,0.2-4.3c2.1-0.6,3,1.2,4.3,2.2
		c0.3,0.3,0.6,0.5,0.9,0.7C123.6,112.5,124.5,110.2,126,111.2z"/>
	<path class="st116" d="M277.1,78.9c-2.4,1-5.1,1.6-4.9,5.1c-1.8,2-4.3,1.3-6.6,1.5c-0.3,1.4-2.6-3.7-2.3,0.9c0.2,3.3-3,4.8-7,4.4
		c-6.5-0.6-12.6,1-18.7,2.8c-0.7,0.7-1.5,1-2.5,0.6c-0.6-0.5-0.9-1.1-1.1-1.7c-0.7-1.6-0.3-4.1-3.2-3.9c-0.5,0-0.9-0.1-1.3-0.3
		c-1.5-1.4-0.9-2.9-0.1-4.3c-0.8-2.8-1.5-5.6-0.7-8.6c-0.6-3.4-3.9-7,1-9.8c2.4,0.5,1.8,2.7,2.4,4.3c1.9,2.1,3.7,4.3,6.9,2.5
		c1.6-0.1,3.2-0.2,4.8-0.1c4.2,0.7,8.5,1.8,12.8,1c0.5,0,0.9,0.1,1.4,0.2c1.2,2.6,5.5-0.1,6.3,3.4c0.1-1.7-1.8-2.7-1.6-4.4
		c-0.8-1.4-4.3-1.8-1.7-4.4c1.9-1,3.9-0.9,5.8-0.2c2.7,1,5.5,0.9,8.3,1.1c0.1,2,1.8,2.3,3.2,2.9c1.9,0,0.8,1.3,0.8,2.1
		c-1,2.3-3.1,2-5,2c-0.6-0.1-1,0.2-1.3,0.6c-0.6,1,0.5,0.8,0.9,1.1C274.8,78.5,276.8,76.1,277.1,78.9z"/>
	<path class="st117" d="M275.1,69.1c-1.7,1.4-3.5,2-5.7,0.9c-2.6-1.2-5.3-1.5-8.2-1.1c-0.6-0.4-0.7-1-0.6-1.7
		c-0.5-2.8-3.1-0.9-4.4-1.9c-0.4-0.3-0.6-0.6-0.8-1.1c-0.2-0.7-0.1-1.3,0.2-2c0.5-1,1.5-0.8,2.3-1.1c4-0.4,7,4.4,11.3,2
		C272.4,62.3,275.1,64.9,275.1,69.1z"/>
	<path class="st118" d="M288.1,73c-1.6,0.2-3.8,1-2-2.1c0.2-1.3,0.5-2.7,2.2-2.6c0.5,0,1.1,0.6,1.4,1.1
		C290.7,71.3,288.7,71.9,288.1,73z"/>
	<path class="st119" d="M279.1,74c-1.1-0.4,0.6-1.8-0.8-2.1c1.2-2,2.6,0.6,3.8-0.1c1.1,0.9,0.4,1.7-0.1,2.4
		C280.9,75.6,280,74.3,279.1,74z"/>
	<path class="st120" d="M283.1,65.1c2.1,0.6,4.2,1.1,6.4,0.6C287.2,67.5,285,67.5,283.1,65.1z"/>
	<path class="st121" d="M287.1,94.9c-1.3,1.4,1.1,1.2,0.9,2.2c-2.6,2.5-5.5,4.2-9.2,2.4c-1-1.3-1.3-2.9-2.3-4.6
		c-0.2,2.9-2.1,3.6-4.3,4c-0.7,0.1-1.4-0.1-2.1-0.5c-0.3-0.4-0.6-0.8-0.6-1.3c0-0.5,0.2-0.9,0.4-1.4c2-1.3,3.6-3.1,4.8-5.2
		c-0.8,0.6-1.7,1.2-2.7,1.3c-1.7,0.1-3.6-0.3-3.9-2.1c-0.3-1.6,1.9-1.9,2.8-3c0.4-0.3,0.8-0.5,1.2-0.7c3.1,0,6.6,3.8,9.2-1.7
		c0.7-1.5,3.5,0.2,4.9,1.8c0.6,0.4,1.1,0.8,0.9,1.6l0,0.3c-1.5,1.4-3.2,0.3-4.9,0.6c3.1-0.4,1.7,1.8,1.8,3.1
		C285.2,92.6,287,92.9,287.1,94.9z"/>
	<path class="st122" d="M272.1,86c0,0.3,0,0.7,0,1c-2.4,1-4.7,2.6-7.6,1.6c-1.7-2.2,0.6-2.6,1.6-3.6c1.8-1.9,4.2,0.1,6.1-1
		C272.2,84.7,272.2,85.3,272.1,86z"/>
	<path class="st123" d="M277.1,78.9c-1.4-2-3,1-4.3-0.1c-0.8-0.7-2.9,0.3-2.5-1.4c0.4-1.3,1.9-2.6,3.7-1.4
		C274.2,78,278.4,75.6,277.1,78.9z"/>
	<path class="st124" d="M287.1,87.7c-0.3-0.5-0.6-1.1-0.9-1.6c1.3-0.4,2.6-0.7,4-1.1c0.1,1.3,0.1,2.6,0.2,4c0.1,1.1,0.9,2.5-1.2,2.4
		c-1.8-0.1-0.9-1.2-0.8-2.2C288.4,88.7,287.5,88.2,287.1,87.7z"/>
	<path class="st125" d="M103,114c2-1.1,4-2.3,4.2-5c-0.3-1.6,0.9-1.5,1.9-1.6c2.4,1.2,5.2,2.1,5.6,5.4c-1.8,4-2.1,9.3-9.3,8.5
		c5.5,2.5,5.7,3.8,1.6,6.7l0,0.1c-3.1,2.7-5.4,0.5-7.9-1.1c-2.6-2.9-2.2-6.6,1.5-8.8C102.4,116.9,102,115.2,103,114z"/>
	<path class="st126" d="M89.2,121.1c-1.6,0.7-3.2,1.1-5,0.8c-1-3.8,2.3-4.9,4.4-6c1.7-0.9,3.8-4.4,6.3-0.9c-0.6,0.5-1.2,1.4-1.8,1.4
		C89.9,116.5,89.6,118.8,89.2,121.1z"/>
	<path class="st127" d="M99.2,126.8c2.7-0.3,5.1,1.7,7.9,1.1c-0.2,2.5-1.7,3.7-4,4c-1-0.7-2-1.3-3-2C99.7,128.9,95.4,129,99.2,126.8
		z"/>
	<path class="st128" d="M250,122c-1.6-1.2-3.3,0.5-5-0.2c-0.9-0.5-1.2-1.4-1.4-2.3c-1-3.3,1.9-5,3-7.4c0.2-0.4,0.5-0.8,0.8-1.2
		c2.2-1.3,3.5-5.1,7.1-2.4c0.1,0.5,0.1,0.9,0,1.4c-0.5,1-1.3,2.1-0.1,3.1c1.2,1.1,2-0.5,3.1-0.6c1.7-0.2,3.3,0.3,4.7,1.2
		c1.2,1.8,1.2,4.5,3.8,5.3c-0.6,1.2-1.1,2.4-1.7,3.6c-0.2,0.4-0.7,1.3-0.7,1.2c-6.9-3.4-4.9,7-10.4,5.9c-0.1-2.8-0.7-6.1,1.7-9.8
		C252.7,120.8,251.4,121.4,250,122z"/>
	<path class="st129" d="M254.1,110c0-0.3,0-0.6,0-0.9c4-1.3,7.2-3.4,8.6-7.6c0.5-0.9,1.3-1.3,2.3-1.4c2.4,0.1,3.8,2.2,6.1,2.6
		c0.2,0.2,0.3,0.5,0.3,0.8c0,0.3-0.1,0.4-0.2,0.4c-0.5,0.8-0.6,1.8-1.4,2.7c1.1-1,0.9-2.6,2.2-3.3c1.3-0.4,2.4-0.4,3.4,0.7
		c0,2.3-0.7,4.2-2.3,5.9c-0.9,0.7-1.8,1.4-2.7,2.1c-0.7,0-1.5,0-2.2,0c-2,0.1-2.6-1.6-3.9-3.5c1,6.3,0.9,6.5-2.2,5.5
		c-1.7-0.3-3.4-0.7-5-1C254.8,113.2,254.5,111.5,254.1,110z"/>
	<path class="st130" d="M262.1,114c2.3,0.9,2.2-0.7,1.8-1.9c-0.7-1.9-3.1-4.2,0.2-5.2c2.8-0.9,1.3,2.7,2.6,3.8
		c0.5,0.4,1,0.9,1.4,1.4c-0.7,2.3-1.4,4.6-2.1,6.9C259.7,121.3,263,116,262.1,114z"/>
	<path class="st131" d="M251.9,130.9c-2.8-0.9-2.2-3.1-2.3-5.2c2-0.1,1.2,2,2.2,2.3C251.9,129,251.9,129.9,251.9,130.9z"/>
	<path class="st132" d="M10.1,48.2c6-0.1,11.9-0.2,17.9-0.3c6.1-2.4,7.9-1.2,7.5,5c-0.1,1.1,0,2.3-0.2,3.4c-0.1,0.6-0.4,1.1-0.7,1.6
		c-0.6,0.6-1.4,0.8-2.3,0.6c-2.2-1.8-1.6-4.2-1.7-6.2c-0.5,1.5,0.3,3.4,0.1,5.3c-0.2,0.5-0.5,0.9-1,1.2c-1.5,0.6-3,0.7-4.5-0.2
		c-1.8-2.5,0.8-4.9,0.3-7.4c-0.2,0.3,0,0.5,0,0.7c-0.1,1.9-1.2,3.7-1,5.7c-0.1,0.8-0.5,1.3-1.1,1.8c-0.5,0.2-0.9,0.2-1.4,0.1
		c-0.4-0.3-0.7-0.7-0.9-1.1c-0.9-1.9-0.4-4-0.6-6.7c0.1,2.7,0,4.7,0.1,6.6c-0.2,1-0.9,1.5-1.8,1.8c-0.4,0.1-0.8,0.2-1.3,0.3
		c-0.6,0.1-1.3,0.2-2,0.1c-0.2-0.1-0.4-0.2-0.6-0.3c-0.4-0.5-1.2-1.4-1.1-1.5c1.4-1.7,1-3.6-0.7-3.9c-2-0.3-0.4,2.5-2,3.7
		C9,55.1,10.6,51.5,10.1,48.2z"/>
	<path class="st133" d="M6.2,62.1C5.6,61.5,5,61,4.5,60.4c1.9-0.7,3.8-0.9,5.5,0.4c2.2-0.2,2.9,1,2.5,3c-0.7,0.9-1.8,1.1-2.9,1.1
		C7.8,64.8,7,63.4,6.2,62.1z"/>
	<path class="st134" d="M12,63.7c0-1.4-0.9-2.2-2-2.9c1.5-1.6,3.3-0.8,5-0.9c0,0,0,0.1,0,0.1c1.5,0.5,2.2,1.7,2.4,3.2
		c0,0.5-0.2,0.9-0.6,1.2C15.2,64.9,13.5,64.9,12,63.7z"/>
	<path class="st135" d="M12.4,120c-0.5-2.2,0.5-3.1,2.6-2.8c0.3,0.3,0.6,0.6,1,0.8c0.7,0.9,0.6,2.1,1,3.1c0.6,1.6,1.5,3.2,1,5
		c0.1,1.3,0.3,2.7-1.7,2.8c-1.2-0.2-1.8-0.8-1.9-2C13.5,124.6,15,121.7,12.4,120z"/>
	<path class="st136" d="M22.1,127c0-1.8,0-3.6,0-6.4c0.9,3.9,3.6,4.9,5.8,6.4c0,0.7,0.1,1.4,0.1,2.1c-0.6-0.4-1.3-0.7-1.9-1.1
		C25.1,126.5,23.5,127.4,22.1,127z"/>
	<path class="st137" d="M17.9,126.1c-0.6-1.7-1.3-3.4-1.9-5.1c2.5-1.4,3.1,0.6,3.9,2.1c0.1,0.9,0.3,1.8,0.4,2.7
		C19.8,129.1,18.7,125.7,17.9,126.1z"/>
	<path class="st138" d="M10.1,126.1c-1.1,0.1-0.9,2.1-2.2,1.6c-1.3-0.5-0.7-1.6-0.4-2.5c0.5-1.3-0.5-1.7-1.4-2.2
		C9.2,121.7,10,123.5,10.1,126.1z"/>
	<path class="st139" d="M9.2,112.9c-2.3,1.1,0.4,4.3-2.1,5.3c-0.6-1-1.3-2.1-1.9-3.1C6,113.6,7.6,113.2,9.2,112.9z"/>
	<path class="st140" d="M14.3,126.9c0.6,0.7,1.3,1.4,1.9,2c-0.4,0.8-0.9,1.7-1.4,2.6c-0.9-1.5-1.9-2.6-2.2-3.9
		C12.1,125.6,13.7,127.1,14.3,126.9z"/>
	<path class="st141" d="M81.1,101c-5.8,3.5-8.6-1.9-12.3-4.8c-0.6,2.2,1.1,2.4,1.5,3.2c-5.3,4.8-9.1,0.1-13.7-1.8
		c1.8-1,3,0.1,4.2,0.1c1.8,0,3.4-0.9,3.6-2.8c0.1-1.7,0-4.2-1-5.1c-1.3-1.1-2.4,0.8-2.1,2.1c0.5,2.6-1.2,2.9-2.8,2.9
		c-1.7,0-3-0.8-4,2c-0.8,2.1-3.2-0.8-4.9-1.2c-2.5-0.6-6.2-0.8-5.1-5.3c0.1-0.5-0.3-1.9-1.5-1.4c-4.2,1.6-6.4-1.4-8.9-3.7
		c0.3-2.7,0.3-2.7,3.6-2c-1.9-1.4-4.4-0.7-6.1-2.2c-2.7-1.1-4.9-3.3-8.4-1.8c-1.4,0.6-4.3-1.4-3.3-3c1.3-2.2-0.6-1.9-1.1-2.3
		c-2.1-1.7-1.5,1.2-2.4,1.6c-0.8,1-1.8,2-3.2,1.5c-0.8-0.3-0.8-1.2-0.2-1.9c0.3-2.4,0.7-4.7,1-7.1c1.3-2.7,3.5-1.6,5.5-1.2
		c0.6,0.3,0.2-1,0.1-0.3c-1.5-0.2-2.9-0.4-2.7-2.5l-0.1-0.1c4.5-2.6,9.6-0.4,14.3-1.5c1.6-0.4,3.1-0.3,4.6,0.1
		c2.5,0.7,5.1,1.9,7-1.1c1.2-0.5,2.6-0.6,3.7-1.5c1.1-1,2.2-1.8,3.7-1.6c1.9,0.3,3.7,0.4,5.6,0.4c3.1-0.3,6.6,0.7,8.3-3.2
		c1.4-0.8,2.9-0.7,4.4-0.5c1.2,0.3,2.4,0.7,3.6,1c2.6,0.8,5.1,1,7.6-0.2c1.4-0.6,2.7-1.1,4.2-0.3c1.7,3-0.7,3.8-2.7,4.5
		c-3.6,1.3-7.5,1.1-11.3,2.1c2.2,7.6,5.2,9.7,12.6,9.4c3.1-0.1,6.5-0.3,7.5,4c0.3,1.4,1.8,1.3,2.7,2c2.9,2.2,5.1,4.8,5.2,8.7
		c0.1,1.6,0.4,3.6-1.7,4.2c-1.8,0.5-3.5-0.6-3.9-2.3c-1-3.6-3.5-4.7-6.9-5.4c-3.9-0.8-7.1,0.2-8.9,4.2c-1,2.2-2.3,3.1-4.1,1.3
		c-2.1-2.2-4.6,1.3-6.1-0.3c3.4,0.9,6.8,3.6,11.5,1.4c2.5-1.2,6.4-1.5,5.5,3.7c-0.1,0.6,0.3,0.7,0.3,0.7c0.3-0.7,0.8-1.1,1.5-1.1
		c1,0,0.3-0.2,0.1-0.4c-1.5-1.4-1.8-3.6-3.5-4.8c-2.1-1.4-1.8-2.8-0.5-4.5c1.5-1.8,2.9-0.7,3.8,0.3c2.8,3.1,6.8,5.1,8.6,9.3
		c2,4.7-0.1,8.3-4.9,7.6C85.9,99.6,83.8,102.7,81.1,101z"/>
	<path class="st142" d="M17.1,64c1,1.5,2.8,1.6,4.2,2.5c-1.9,2.9-5.2-0.7-7.1,1.5c-1.4-0.9-1.7,1.6-3,0.9c-2.2-0.9-2.6-2.6-2-4.8
		c1-0.1,1.9-0.2,2.9-0.3C13.7,63.8,15.4,63.9,17.1,64z"/>
	<path class="st143" d="M9.1,64.1c0.7,1.6,1.3,3.2,2,4.8C10.3,71.8,7,68.5,6,71c-0.2-0.6-0.5-1.2-0.7-1.8c-0.5-1.8-3.4-4,0.8-5.1
		c0-0.7,0-1.3,0.1-2C7.1,62.7,8.1,63.4,9.1,64.1z"/>
	<path class="st144" d="M11,79.9c-3.2-1.2-0.9,2.7-3.1,2.8C7.1,81.9,6.1,81,5,80c0.1-0.3,0.1-0.6,0.2-0.9c2.1-1.7,1.6-3.7,0-5.8
		c3.3-0.2,4.4,2.1,5.9,3.6C11.9,78,11.9,78.9,11,79.9z"/>
	<path class="st145" d="M11,79.9c0.1-1,0.1-2,0.2-2.9c0-1.4,0.7-2,2-1.9c1.3,2.8,1.9-0.6,3-0.3c2.6,0.9,2,2.6,1.1,4.4
		c-1.5,1.2-2.6,2.8-4.1,3.9C11.6,82.5,11.2,81.2,11,79.9z"/>
	<path class="st146" d="M284,91.7c0.1-2.8-3.5-1.1-4-3.4c2.3-0.8,4.7-0.3,7.1-0.3C286,89.3,285,90.5,284,91.7z"/>
	<path class="st147" d="M244.3,120c0.3,0.6,0.5,1.2,0.8,1.9c0,1.3,1.2,2.7,0,4c-1-0.3-2-0.6-3-0.9c-1.2,0.5-1.7-1.9-3.1-0.8
		c-0.3-0.4-0.6-0.8-1-1.1c-0.3-1.9,1-2.9,2.1-4c0,0,0,0.1,0,0.1c3.9-1.2,1.3,2.2,2.2,3.1C244.2,122.7,243,120.1,244.3,120z"/>
	<path class="st148" d="M238.9,124.2c1.4-1.2,2.2-0.1,3.1,0.8c-1.6,1.3-2.3,3.5-4.6,4c-0.6-0.7-1.4-1-2.3-0.9
		C234.5,124.8,238.5,126.3,238.9,124.2z"/>
	<path class="st149" d="M288.1,98c0.9,0,1.7,0.1,2.2,1c-0.2,4-3.7,3.8-6.2,4.8c-0.2-0.4-0.2-0.9,0-1.3
		C285.4,101,286.4,99.2,288.1,98z"/>
	<path class="st150" d="M284.1,103c0,0.3,0,0.5,0,0.8c-0.2,0.4-0.5,0.8-0.7,1.2c-0.5,1.2-1.2,2.2-3,2.3c0.1-2,2.5-3.1,2-5.1
		C283.4,101.3,284.1,101.4,284.1,103z"/>
	<path class="st151" d="M107,127.8c1.2-2.1,5.3-5-1.5-4.6c-0.5,0-1.3-1-1.7-1.6c-0.5-0.8,0.5-1.4,0.9-1.4c6.1,1.3,6.8-4.1,9.3-7.3
		c1.3-1.1-0.5-4.7,3.2-3.9c-0.1,1.3,0.8,2.6-0.1,3.9c-0.2,1.5,1.9,2.4,1,4c2.3,2.3,1,5.4,2,8c-0.6,3.5-3.3-1.3-4.1,1.1
		c-3.4-1-4.4,4.4-7.9,2.9C107.8,128.6,107.4,128.2,107,127.8z"/>
	<path class="st152" d="M34.1,120.1c0,0.3,0,0.6,0,1c-1.3,2.7,0.7,5.3,0,8c-2.3,0.4-3.7-2-5.9-1.9c-0.5-2.4,1.2-5.1-1.1-7.2
		c-2.3-3.4,1.8-3.6,2.7-5.3c2.3,1.7,0.8-2,2.3-1.6c0.8-0.4,1.3,0.1,1.6,0.8C32.7,115.9,34.9,117.9,34.1,120.1z"/>
	<path class="st9" d="M20.1,46.9c-0.3-3.3,1.9-4.2,4.3-3.6c3.4,0.8,6.5,0.7,9.9-0.2c1.8-0.5,5-1.3,4.7,2.8c-1,1.2-2.4,1.3-3.8,1.2
		c-2.7-0.1-5.4-0.3-8.1-0.1C24.8,47,22.5,46.9,20.1,46.9z"/>
	<path class="st153" d="M27.1,47c2.5-2,5.4-0.6,8.1-0.9c0.7,0.4,1.4,0.8,1.7,1.7c0.2,3.4,1,7-2.8,9.2c0-0.8-0.2-1.7,0-2.4
		c1.6-5.7-0.8-7.5-6.2-6.6C27.7,47.6,27.4,47.3,27.1,47z"/>
	<path class="st154" d="M284.1,103c-0.4-0.8-1.1-0.9-1.8-0.9c-1.9-0.5-2.2,2.5-4.1,1.8c-0.3-0.3-0.5-0.7-0.5-1.2
		c0.2-1.3,0.3-2.8,1.5-3.7c3.4,1.3,5.9-1.6,8.9-2c0.1,0.3,0.1,0.6,0.1,0.9C287.8,100.4,286.2,102,284.1,103z"/>
	<path class="st155" d="M196.3,5c-0.1,0.4-0.3,0.8-0.4,1.1c-0.3,0.8-0.8,1.1-1.6,0.9c-0.6-1.3-1.9-0.8-4.5-1.7
		c5-0.1,5.2-2.7,5.5-5.2c0.2,0.1,0.4,0.2,0.6,0.2C196.1,1.9,196.2,3.4,196.3,5z"/>
	<path class="st156" d="M167.1,0.9c1,0.4,2,0.7,3,1.1c2.5,2.5,6.2,4,6.8,8c0.9,0.7,0.9,1.6,0.9,2.6c-1,1.6-0.7,5.9-4.3,2.1
		c-0.7,1-2.2,1.2-2.4,2.4c-0.2,1.7-1.3,2.1-2.6,2.6c-1.3,0.2-2.4-0.1-3.2-1.2c-2.7-3.3-4.8-7-5.9-11.2c1.5-3.4,1.5-3.2,5.4-3.2
		C166.5,4.1,165.9,1.7,167.1,0.9z"/>
	<path class="st157" d="M193,9.9c0.3-0.6,0.5-1.3,0.8-1.9c0.2-0.3,0.3-0.6,0.5-0.9c0.5-0.3,1.1-0.6,1.6-0.9c0.7,1.6,1.4,3.3,2.2,4.9
		c0.3,1.4,2.5,2.8,0,4.1c-1.8,1-2.7-0.4-3.7-1.5C193.4,12.6,192,11.7,193,9.9z"/>
	<path class="st158" d="M156.8,4.1c0.3-2.5,3.4-1.3,4.2-3.1c2.1,0,4.1-2.1,6.2-0.1c1.3,2.9-1,4.4-2.7,6.6c-0.3-1.5-0.5-2.7-0.7-4.1
		c-2.2,0.5-1.7,3.3-3.6,3.6c-2.1,0.7-2.5-1.1-3.2-2.3C156.9,4.5,156.8,4.3,156.8,4.1z"/>
	<path class="st159" d="M192.1,81c-0.7-0.6-3.3,2-2.3-1.4c0.4-1.4-0.6-2-1.6-2.6c-2,0.4-4,2.7-6,0.9c-2.4-2.2-0.6-5.2-0.3-8.8
		c-0.6,3.6-1.4,5.4-4.2,3c-1.8-4.3-2.7-8.8-3.4-13.3c0.5-1.9,1.4-2.5,3-0.9c1.1,1.1,0.9,2.6,1.6,3.7c0.6-2.2-1.9-3.5-2-5.6
		c2.2-3,2.1-6.9,3.5-10.2c0.2-0.6,0-0.4-0.4-0.7c-3.5-2.8-3.1-6.5,0.7-9.4c2.6-0.3,5.3-1.1,7.7,0.6c1.5,1.1,2.4-0.8,3.7-0.5
		c3,4,5,0.1,7.4-0.9c0.5-0.2,0.9-0.2,1.4-0.1c3,1.7,1.8,3.5,0.1,5.3c-2.3,1.2-0.3,5.4-4.6,5.6c2.1,1.1,3.1,2.7,4.2,4.2
		c2.4,2.9,1.8,5.1-1.7,6.6c-2.1,3-2.5,6.8-4.5,9.8c-1.1,1.7,0.8,1.7,1.2,2.6c1.3,2.8,1.4,5.1-2.5,5.6c-1.6-1.3-3.4-0.8-4.2-0.8
		c0.4,0,1.8,0,3.1,0.6c1.1,0.9,2,0.2,3-0.3c1.4-0.7,2.7-1,3.4,1c-0.1,2-0.7,3.8-3,3.7C193.6,78.5,193,79.9,192.1,81z"/>
	<path class="st160" d="M192.1,81c-0.4-2.2-1.5-5.1,2.7-3.6c2.8,1,2-1.9,3.3-2.4c1-0.4,1.9,0.1,2.9-0.1c2,1.9,0,6.1,4.2,7
		c2.1,0.4,4.1,2,5.8-0.2c1.5-2,2.6-4.4,0.1-6.5c-2.5-2.6-1.6-3.9,1.6-3.7c2.2,0.2,3.5-0.2,4.2-2.4c0.3-0.9,0.7-2.2,1.9-2
		c1.3,0.2,2.1,1.5,1.9,2.6c-0.5,3.4,1.9,4.3,4.1,5.6c0.7,0.7,1,1.6,0.9,2.6c-0.1,0.7-0.4,1.4-1,1.7c-1.5,0.8-3.6,0.8-2.9,3.5
		c0.1,0.3-0.2,0.8-0.5,0.8c-4.8,0.9-2.1,5.4-3.8,7.7c-0.2,0.2-0.4,0.3-0.5,0.4c-0.3-0.4-0.6-0.7-1-1.1c-0.9-0.8-1.8-1.6-2.6-2.5
		c-0.9-1.2-1.8-1-2.7,0c-0.6,0.2-1.2,0.1-1.7-0.4c-1.4-1.6-1.8,0.1-2.5,0.8c-1.5,1.5-2.4,2.1-2.9-1c-0.4-2.8-3.3-2.5-5.6-3
		C195.7,84.5,191.5,86.1,192.1,81z"/>
	<path class="st161" d="M178.3,72c3.3,1.7,2.3-1.9,3.8-3.9c0,2.2,0.1,3.5,0,4.7c-0.2,3.4-0.1,6.2,4.4,3.3c0.3-0.2,1.1,0.5,1.6,0.8
		c-1.6,4.8-1.6,4.8-7.7,3.6c0.4,1.9,1.5,3.2,2.9,4.3c1.5,1.2,1.4,1.3-1.2,2.1c-1.7-0.6-2.8-1.9-4.1-3.1c0.3-1.3,0.7-2.6,1-4
		C178.6,77.3,176.3,74.9,178.3,72z"/>
	<path class="st162" d="M214.1,88.1c1.3,0.5,1.9,1.5,1.9,2.9c-2.2-1.2-6.9,3.5-7-2.9c0.6,0,1.3,0,1.9,0.1
		C212.1,88.3,213.1,88.4,214.1,88.1z"/>
	<path class="st163" d="M219.1,93c-1,1.7-2,3.3-3,5c-5.2-2.9,1.5-3.8,1-6c0,0,0,0,0,0C218.2,91.4,219.1,91.3,219.1,93z"/>
	<path class="st164" d="M135.1,90.1c0.6-2.3,1.3-4.7,1.9-7c-1-1.9-0.1-2.8,1.6-3.3c0.9,0.2,0.8,1.2,1.4,1.7c0.5-1.6-0.5-2.3-1.6-2.9
		c-2.2-3.6,0.8-5,2.9-6.8c1.1-0.7,2.2-1.4,2.9-2.6c0.8-2.4,3.2-4.8-1.3-6.4c-2.3-0.8-1.9-3.1-0.2-4.7c0.9-0.5,1.8-0.3,2.7-0.2
		c1.1,0.1,2.2-0.2,3.4,0c0.5,0.2,0.7,0.5,0.8,1c0.6,2.4,0.4,4.7-0.1,6.5c1.8-2-0.9-5.3,1.1-7.8c3.8-1.2,7.7-0.7,11.6-1.1
		c1.7,0.4,2.8,1.8,2.6,3.2c-0.6,5,2.5,9.5,1.5,14.5c-0.6,3.2,0.8,5.2,3.6,6.3c1.7,0.7,3.5,1.2,3.2,3.7c-0.3,0.4-0.6,0.8-0.9,1.2
		c-0.7-1-1.5-1.2-2.4-0.2c-1.6,1.7,0.3,2.9,1.2,4.4c-2.8,0.2-5.2,0.2-7.5,0.5c-1.5,0.2-2.8-0.1-3-1.7c-0.7-5.6-3.6-3-6.2-1.8
		c-1,0.5-1.9,1.3-2.9,1.7c-1.3,0.5-2.9,1.5-3.8-0.5c-0.9-1.8,0.2-2.1,1.8-2.3c1-0.1,0.8-1.4,0.2-2c-1.2-1.1-2.4-2.9-4.5-1.3
		c-1.2,5,0.6,10,0,15c-0.5,0.4,0.9,2.9-1.2,1.4c-4-2.9-5.4-2.7-7.8,1.5c-1.8-1.6-2.1-3.5-0.5-5.1C137.6,92.8,136,91.6,135.1,90.1z"
		/>
	<path class="st165" d="M145.1,97c-1.3-5-2.6-10,0-15c0.1,1.9,1.6,3.7,0.6,5.8c-1.4,3,2,2.7,3.2,4.4C146.8,93.2,146.4,95.4,145.1,97
		z"/>
	<path class="st166" d="M135.1,90.1c3.8,0.8,3.6,3.2,1.5,5.2c-1.8,1.7-0.7,3.1-0.6,4.7c-0.5,0.7-0.7,2.2-2.1,0.9
		C133.8,97.2,134.2,93.6,135.1,90.1z"/>
	<path class="st167" d="M173.1,84c-1.3-0.9-1.8-2.8-3.9-2.5c-4.7,0.5-4-4.3-4.7-6.3c-1.1-2.9,3.1-7.2-1.9-9.8
		c2.3-2.6,1.4-5.5,0.5-8.3c-2-3-2.4-7.4-7.3-7.9c-1.7-0.2-1.3-2.1-1.1-3.4c0.4-2-0.3-4.4,1.8-6c1.9-0.1,2.7,1.2,3.1,2.6
		c0.7,2.3,2.2,3.6,4.3,4.4c2.3,0.9,3.8,2.8,5,4.8c1.2,1.8,0.8,3.8,0.3,5.7c-0.4,1.8-0.9,3.6,0.5,5.2c1.9,2.5,0.8,5.7,1.7,8.5
		c1.3,3.8,1.2,8.1,2.6,11.9C173.8,83.3,173.4,83.7,173.1,84z"/>
	<path class="st168" d="M174.1,83c-4.7-4.9-3.4-11.4-4.4-17.2c-0.2-1-0.3-1.9-0.7-2.8c3.4-1,4.3,1.3,4.8,3.8c0.5,2.4,1,4.8,3.1,6.5
		c1,1.4,2.5,2.7,0.9,4.6C176.5,79.5,177.7,83.1,174.1,83z"/>
	<path class="st169" d="M177.9,77.9c0.4-1.8-0.3-3.1-1.8-3.9c-1.9-4.4-1.9-9.4-3.7-13.9c-0.4-1.1-0.2-2.3,0.9-3.2
		c1.1-0.3,1.5,0.4,1.7,1.3c1.1,4.6,2.2,9.2,3.3,13.8c0.3,2.7,1.3,5.3,0.8,8C178.2,79.6,178.1,78.7,177.9,77.9z"/>
	<path class="st170" d="M69.1,56.1c-1.6,0-3.3,0-4.9,0c-2.5,1.3-4.9,2.8-7.9,2.9c-2.4-0.1-4.7-0.5-6.3-2.5c1.1-3.6,4.6-2.6,7.1-3.4
		c0.8,0.1,1.4,0.5,2,1c2.8,0.8,4.8-1,7.1-2c0.3,0,0.6,0,0.9,0c1.8-1.2,3.3-0.7,4,1.2C71.7,54.9,71.2,56.1,69.1,56.1z"/>
	<path class="st171" d="M59,54c-0.6,0-1.2,0-1.8,0c-1-5.9-1-5.9-9.1-7.1c-0.4-0.2-0.8-0.5-1.1-0.9c3.2-2,6.8-0.7,10.2-0.9
		c1.5-0.1,1.8,1.2,1.8,2.4C59.1,49.7,59,51.8,59,54z"/>
	<path class="st172" d="M47.1,46c0.4,0,0.7,0,1.1,0c-2.7,3.1-6.8,3.4-12,1.1c-0.3-0.3-0.7-0.7-1-1c1.3,0,2.6-0.1,3.9-0.1
		c0.3,0,0.7,0,1,0.1C42.4,46,44.7,46,47.1,46z"/>
	<path class="st173" d="M85.1,42c-0.9-1-1.8-1.8-3.3-0.8c-1.7,1.2-3.5,1.1-5.9-0.2c4.4-1.8,8.2-2.9,12.2-1c0,3,0,6,0,9
		c0.8-3.4,1.7-6.1,6.1-5c0.3-0.3,0.7-0.5,1.2-0.7c0.8-0.2,1.6-0.4,2.4-0.5c1.2-0.3,2.4-0.5,2.7,1.1c0.3,1.3-0.6,2.1-1.7,2.7
		c-1.4,0.8-3.1,0.6-5.1,1c2,0.8,2.4,1.8,1.7,3.3c-4,1.6-7.9,4-12.4,1.7c-1.1-2.3-1.3-4,1.8-5.3C87.2,46.2,85.3,43.8,85.1,42z"/>
	<path class="st174" d="M95.1,44c-0.3,0-0.6,0-0.9,0c0.5-2.5-1.3-3-3.4-3.3c3.9-2.8,8.6-0.8,12.2-3.1c-2.5-2.6-6.6,2.9-8.9-1.6
		c0.1-0.1,0.3-0.3,0.4-0.4c0.6-0.2,1.1-0.1,1.6,0.4c2.5-1.4,5.3-0.8,8-0.9c1.5,0.4,3.8-0.1,3.4,2.7c-1.9,2.4-4.8,3-7.4,3.4
		C97.9,41.6,96.5,42.6,95.1,44z"/>
	<path class="st175" d="M76.1,31c3.7-3.1,6.7,0.2,10,0.9c0,0.6-0.6,0.7-0.9,1C81.6,35,78.6,34.2,76.1,31z"/>
	<path class="st176" d="M85.2,32.9c0.3-0.3,0.6-0.7,0.9-1c1-0.1,2.1-0.1,3.1-0.2c2.1-0.5,3.7,0.5,5.3,1.7c1.3,1,0.6,1.9-0.4,2.6
		c0,0,0,0,0,0C90.5,36.8,88.3,33.6,85.2,32.9z"/>
	<path class="st173" d="M69.1,56.1c1-0.6,1.9-1.2,1.2-2.6C69.6,52,68.3,52,67.1,52c0-1.5,0-2.9,0-4.4c0-1,0.3-2.6,1.2-2.3
		c3.9,1.3,7-3,10.8-1.3c-0.1,1.5,1,2.2,2.1,2.9c1.6,1.1,2.1,2.7,0.6,4.2c-1.1,1.1,0.6,0.3,0.4,0.7c1.2,3.8-3,2.1-3.8,3.8
		c-1.7,2.1-4.2,1.3-6.4,1.5C71,57,69.8,57.2,69.1,56.1z"/>
	<path class="st70" d="M82.2,52C81,52,79.9,51.9,78,51.7c1.4-1.5,3.8,0,4-2.2c0.2-2.2-1.9-1.9-3-2.6c-1.7-1.2-0.8-2,0.1-3
		c2-0.6,4.3-0.5,6-2c3.1,3,2.8,4.9-0.8,6.2c-1.9,0.7-1.1,2.5-1.3,3.8C82.8,52.4,82.5,52.3,82.2,52z"/>
	<path class="st177" d="M200.1,75c-0.7,1.1-1.3,0-2,0c-1-1.3-2.1-1-3.2-0.2c-0.9,0.7-1.7,1.6-2.7,0.2c0.2-0.5,0.5-0.8,1-1
		c1.2-0.7,2.8-1,2.2-3.2c-0.4-1.4-0.3-2.5-2.3-2c-1.3,0.3-2-0.9-1.1-1.8c3.8-3.2,3.4-8.5,6.2-12.1c0.7,0.1,1.3,0.4,1.7,1
		c0.9,1.3,0.2,2.5-0.2,3.8c0.9-1.1,0.7-2.5,1-3.8c1.4-1.3,2.2-3.1,2.2-4.8c-0.1-4.7,2-4.4,5-2.7c0.7,0.4,1.5,0.6,2.3,0.2
		c0.5-0.4,1.2-0.7,0.8-1.5c0-0.1-0.6,0.2-0.8,0.5c-1.1,0.8-2.2,0.7-3.3,0.1c-3.5-2-5.6-5-6.8-8.8c2.4-1.3,2.4-2.7,0-4.1
		c-0.9-1.5-1.4-2.9-3.6-3.5c-4.4-1.1-4.7-4.1-1.3-7.5c5.1,3.6,10.1,7.3,16.6,8c1.8-0.1,3.6-0.1,4.4,2.1c-0.3,2.2,3.6,3.4,1.4,6.2
		c-0.4,0.5,0.9,1.7,1.9,0.6c0.7-0.8,1.1-1.9,1.7-2.9c2.2,1.2,0.8,2.6,0.2,3.9c-1.8,5.8-3,11.6-2.2,18.3c2.7-1.3,2.6-4.3,4.9-4.7
		c1-0.1,1.9,0.3,2.7,0.8c2.2,2.5,1.8,5.8,0.7,8c-1.6,3.5-2,6.8-2,10.4c0,0.6-0.8,1-1.4,1.3c-2-0.7-3.9-3.6-4.6-7.1
		c-0.1-0.3-0.3-0.5-0.9-1.3c-1,3.6-1.7,7.7-6.7,4.6c-0.5-0.3-1.5,0-1.3,0.9c0.1,0.4,1,0.6,1.5,1c0.2,1.5,0.4,3.6-1.3,3.8
		c-2.2,0.3-4.1-1-5-3.2c0-0.7,0.8-1,0.8-1.7c-0.6,0.1-0.2,0.8-0.6,1.1C204.4,76.5,202,74.2,200.1,75z"/>
	<path class="st178" d="M195.1,24c-2.2,4.9-1.7,6.1,3.2,6.7c3.8,0.5,1.6,2.7,1.8,4.3c0,0-0.1,0-0.1,0c-2.8-1.1-5,3-8,1
		c-1.5,1.5-2.6,3.7-5.1,0.5c-0.8-1.1-3.9-0.4-6-0.5c-2.7,1.3-3.9-0.1-4.2-2.6c1.4-4.9,6.4-8,6.5-13.5c0.6-1.1,1.3-2.2,2.8-2.1
		c1.6,2.5,2,4.8-1.5,6.8c2.7,1.2,5.6-1.6,7,2.6c0.7-2.6,1.1-4.2,1.5-5.9C194.4,21.8,194.5,23.1,195.1,24z"/>
	<path class="st179" d="M186,17.9c-0.6,0.6-1.3,1.3-1.9,1.9c-0.7,1.1-0.4,2.9-2.4,2.9c-1.8-0.2-3.4,0.4-4.9,1.3
		c-5.7,2.7-10.9,6.4-17,8.2c-1.3,0.4-2.6,1-3.8,1.8c-4.7,3.1-10.3,4.2-15.1,6.8c-2.2,0.6-4.4,1.4-6.8,1.2c-1.3-0.3-2.5-0.8-3.3-1.9
		c2.5-3.9,7.3-3.2,10.7-5.3c0.9-0.2,1.6-0.8,2.3-1.3c8.6-2.5,16.7-6.1,24.8-10c1-0.5,2.1-0.9,3.1-1.3c3.2-0.9,5.9-3.1,9.1-3.9
		c2,0.7,3.2-2.3,5.3-1.1C186.2,17.3,186.1,17.6,186,17.9z"/>
	<path class="st180" d="M193,9.9c0.2,0.9,0.1,2.3,1.1,2.5c1.5,0.3,1.9,2.5,3.6,1.9c2.1-0.8-2-2.4,0.3-3.3c2.5,1.3,5.3,1.6,8.1,2.2
		c-3.8,2-7.4,4.6-12.1,2.8C194.8,13.8,190.1,12.5,193,9.9z"/>
	<path class="st181" d="M216.1,34.1c-1-1.7-3.5-0.1-4.4-2.1c1.4-2.1,2.8-4.1,5.2-0.9C217,32.2,217.4,33.3,216.1,34.1z"/>
	<path class="st182" d="M103.1,22c6.7-0.9,13.3,1.6,20,0.8c1.1-0.2,2.4-1.1,3.1,0.7c-1.5,2.1-3.7,1.8-5.8,1.9
		c-8.6,0.3-17.1,0-25.7,0c-1.5,0.2-3,0-4.6-0.1c-1.7-0.5-3.6,0-5.1-1.3c-3,0.4-4.8-0.9-5.1-4C87.5,23.5,95.4,21.5,103.1,22z"/>
	<path class="st183" d="M80.1,20c-3.8,0-7.6,0-11.4,0c-1.8,0-3.7,0.1-4.7-1.9C69.6,17.6,75.3,15.1,80.1,20z"/>
	<path class="st184" d="M93.9,24.1c9,0,17.9-0.1,26.9-0.2c1.8,0,3.7,0.6,5.3-0.8c3.8,0.8,7.6,1.4,11.3,2.6c2.2,3.1,0.1,4.5-2.3,5.5
		c-3.5,1.5-7.2,2-10.9,2.6c-1.4,0-2.6-0.4-3.5-1.5c-0.7-1.5-1-3-0.9-4.1c0.3,2.5,0.1,5.3-4.1,4.7c-1.2-1-2.1-0.7-2.8,0.6
		c-1.3,0.8-2.7,1.2-4.2,1.5c-1.3,0.1-2.6-0.1-3.6-1.1c-4.6,0.2-7.1-3.2-10-5.9c0.5-0.8,1.3-1,2.1-1C95.8,26.4,94.1,26.2,93.9,24.1z"
		/>
	<path class="st185" d="M121.2,32c1,0.3,2,0.7,3,1c1.8,0.4,2.8,2.3,4.7,2.5c0.6,0.5,0.5-0.7,0.2-0.1c-0.1,0.2-0.2,0.1-0.5,0
		c-1.3-0.9-3-2.2,0-2.7c2-0.4,4.3-2.8,6.2,0.1c0.1-0.1,0.1,0.3,0.2,0c1-4.1,4.4-2.3,6.7-2.3c3.4-0.1-0.3,3,1.3,4.1
		c0.4,0.3,0.3,0.9,0.1,1.4c-4,1.4-7.9,2.7-11.9,4.1c-2,3.6-6.1,2.8-9.1,4.2c-2.7,1-5.7,1.3-8.1,3.1c-0.7,0.6-1.3,1.3-2,1.8
		c-0.4,0.3-0.8,0.4-1.3,0.5c-1.3,0.1-2.2-0.5-3-1.4c-4.3-2.3-5-4-3.1-7.2c0.3-0.6,0.6-1.1,1.2-1.5c0.5-0.4,3.6,1.3,1.4-1.5
		c0.2-2.2-2.3-1.8-3-3c0.3-0.4,0.7-0.7,1-1.1c1.4,0,2.7,0,4.1,0c2,0,4,0.3,5.7,1.9c-1.2-0.8-1.8-1.7-1.7-3c0.1-1.9,1.2-1.1,2.1-0.8
		C117.2,33.3,119.2,31.9,121.2,32z"/>
	<path class="st186" d="M93.9,24.1c1.7,1.8,4.2,1.6,6.5,2.3c-1.3,2.5-3.6,1.2-5.4,1.6c-1.3-0.4-2.6-0.7-4-1.1c-0.8-0.8-1.8-1.6-1-3
		C91.4,24.1,92.7,24.1,93.9,24.1z"/>
	<path class="st70" d="M94.1,36c0-3.3-3.1-3-4.8-4.3c5.9-3.2,6.8-2.7,6.9,4.2C95.4,36,94.7,36,94.1,36z"/>
	<path class="st187" d="M90.1,24c0.3,1,0.7,2,1,3c-1.9-1.1-5.1,0.3-6-3C86.8,24,88.5,24,90.1,24z"/>
	<path class="st188" d="M224.3,56c-1.1,0.4-1.3,1.4-1.8,2.2c-0.8,1.2-0.2,3.9-2.8,3.1c-2-0.6-3.4-3.7-3.1-4.3
		c2.5-4.1,0.7-9,2.6-13.1c0.5-1,1.1-1.6,2-2c1.5,1,0.7,2.7,1.1,3.8c2.6-4.9,2.5,1.1,3.9,1.2C222.8,49.3,223.9,52.7,224.3,56z"/>
	<path class="st189" d="M224.3,56c-0.3-0.6-0.4-1.3-0.8-1.8c-3-4.7-2.7-5.6,2.7-7.3c0.3,0,0.6,0.1,0.8,0.1c-0.6,4.9,0.9,8.2,6.3,8.8
		c-1.2,1.8-2.9,2.1-4.8,1.8c-1.8-1.3-1.9-3.3-2.8-5.2c0,1.5,1.9,3.1,0.3,4.7C225.5,56.7,224.9,56.3,224.3,56z"/>
	<path class="st58" d="M219.1,93c-0.4-0.9-1.2-1-2-1c0.3-3,0.1-6-0.8-9.3c1.7,0.2,3.9,3.9,4.3,0.3c0.3-3.5,3.5-2.9,4.6-4.9
		c1.6-0.7,1.9-4.8,4.9-2.1c-1.2,2.7,0.1,5.5-0.1,8.3c-0.4,0.3-0.7,0.1-0.8-0.3c-0.8-1.5-1.8-2-2.9-0.4c-1.1,1.5-2.2,2.7-4.3,2.6
		c-1.2-0.1-1.9,1-0.9,1.9C224.2,91.2,220.5,91.6,219.1,93z"/>
	<path class="st190" d="M229.1,83.9c0.3,0,0.6,0.1,0.8,0.3c-0.4,1.3-1.7,2.5,0,3.8c2,1.5,2.9,3.7,3.7,5.9c-0.6,2.7,2.6,4.8,1.1,7.6
		c-3.6,0.9-4-2-4.8-4.2C228.5,92.9,227,88.5,229.1,83.9z"/>
	<path class="st191" d="M230,97.2c1.6,1.3,2,4.3,5.1,3.5c1.1-0.4,2-1.4,3.3-1.2c0.6,0.3,1,0.7,0.7,1.4c-0.3,1.1,2,3.9-1.7,2.6
		c-2.4-0.9-5.4-0.2-7.2-2.6C230.7,99.7,228.3,98.6,230,97.2z"/>
	<path class="st192" d="M239.1,101c-0.3-0.4-0.6-0.8-1-1.2c-0.9-2.2,0.1-4.7-1-6.8c0.2-0.4,0.2-1.2,0.5-1.3
		c5.7-0.9,11.4-2.6,17.1-2.4c7.3,0.3,8.5-0.4,7.1-8.5c1.5,1.9,2.3,3.8,4.3,4.2c0.2,1.5-1.3,1.9-2,2.9c0.1,2.1-1.2,3.4-2.5,4.7
		c-0.8,0.8-1.6,1.6-2.7,2.1c-2.3,1.5-5.7,0.6-7.6,3.2c-1.1,2.2-2.2,4.4-3.1,6.8c-0.5,1.1-1,2.1-2.2,2.6c-1.8,0.1-1.9-3-4-2.2
		C240.7,104,241.2,101.5,239.1,101z"/>
	<path class="st193" d="M242,105c2.2-1.2,3.1,0.4,3.9,2c-0.2,2.4-1.7,1.6-3,1.2c-0.3-0.4-0.6-0.7-1-1.1C242,106.4,242,105.7,242,105
		z"/>
	<path class="st194" d="M242.9,108.2c1.1-0.3,2.4,0,3-1.2c0.4-1,0.8-2,1.2-3.1c1.2-0.4,2.3,0,3.3,0.7c0.6,0.5,1,1,1.2,1.8
		c0.2,2.7-3.7,2.9-3.4,5.7l-0.3,0.1l-0.3-0.1c-0.5,0.5-1,0.5-1.5-0.1c-1.6,0.3-1.9-1.3-2.9-2C243.1,109.4,243,108.8,242.9,108.2z"/>
	<path class="st82" d="M240.1,119c0.4,1.9-1,2.9-2.1,4c-1.1-0.8-0.8-2-0.9-3.1C237.7,118.5,238.8,118.2,240.1,119z"/>
	<path class="st195" d="M246.1,112c0.5,0,1,0,1.5,0.1c-0.6,2.8-4.6,4.3-3.3,7.9c-0.2,1.3,0.2,2.9-1.7,3.3c0,0-0.2-0.8-0.4-1.2
		C243.5,118.7,242.7,114.6,246.1,112z"/>
	<path class="st196" d="M278.2,103c-0.1,0.3-0.1,0.6,0,0.9c-0.9,1.2-1.9-0.3-2.8,0.1c-1.4,0-2.8,0-4.2,0l0,0c0-0.3,0-0.6-0.1-0.9
		c-0.1-1.2,0-2.4,1-3.3C274.7,99.7,276.5,101.2,278.2,103z"/>
	<path class="st197" d="M81.1,101c3.4-1.1,6.5-3.4,10.6-1.4c1.2,0.6,0.3-2.8,1.9-4.1c1-0.8-3-5.4-5-6.4c-2.1-1.1-1.7-4.5-4.5-5.3
		c-0.9-0.3-1.5-1.9-2.4,0.2c-0.6,1.4-0.5,1.2,0.7,2.1c2.6,1.9,2.7,6.4,7,6.6c-1.1,2.7-6.9-2.5-5.3,4.2c-0.5-2-3-2.4-1.5-5.1
		c1-1.8-5.6-3.7-5.9-1.8c-0.7,4.3-3.1,1.6-3.6,1.2c-3.2-2.1-8.8-0.9-10-7.5c3.3,4.5,9-1.2,11.2,5c2.4-6.9,5.2-7.4,12.4-7.1
		c5,0.2,5.4,2.7,6.5,5.9c0.4,1.3,1.5,2,2.6,1.9c1.7-0.2,1.2-1.7,1-2.7c-0.6-4.2-2-7.9-6.8-8.8c-1-0.2-1.2-0.6-1.2-1.6
		c0-4.3-4-4.1-5.9-3.5c-5.4,1.8-8.7-2.2-12.7-3.8c-1.2-0.5-1.2-3.9-2.8-5.8c-0.7-0.8,1.2-2.9,3.6-2.8c3.3,0.2,6.5-0.6,9.7-1.3
		c1.8-0.4,3.2-1,3.3-3c0.8-2.3,2.9-2.7,4.8-3c7.5-1,14.6-3.7,22.2-4.1l0.1,0c1.5-0.1,1.4,1,1.5,2c0,0.6-0.9,1.1-0.5,1.3
		c4.6,1.7,6.3,3.1,6.9,7.9c0.4,3.5,1.7,4.3,5.1,4c4.2-0.3,7.1,2.9,10.4,5.1c0.7,3.7-0.3,6.9-2.5,9.8c-0.1,3.4-0.6,6.9,0.6,10.3
		c0.6,1.6-0.1,3-1,4.1c-2.5,3.1-1.7,7.3-3.5,10.6c-1.1-0.4-1.9-1.6-3.3-1.5c-1-0.2-1.9-0.7-2.9-0.4c-0.8,0.3-1.5,0.7-2.4,0.8
		c-2.4,1.3-5.1-2.4-7.4,0.4c-1,0.9-2.1,1.7-3.3,2.3c-5.1,1-10.4,0.3-15.6,1.4c-1.7,0.4-3,1-4.3,1.9c-0.3,0-0.6,0-0.9,0
		c-1.9-0.6-3.8-1.1-5.8-1.4c-0.8-0.1-1.6-0.5-1.7-1.5c-0.1-1,0.6-1.5,1.3-1.9c1.8-1.1,4.2-0.8,5.9-2.1c-1.3,0.9-2.6,1.1-3.8-0.1
		C83,102,81.8,102.2,81.1,101z"/>
	<path class="st198" d="M16.2,79c1.4-1.4,1.3-2.9,0-4.3c-0.1-2.3,0.8-3.8,3.5-4.6c-0.4,2.8,0.2,4.8,3.5,3.7c0,2.2-2.2,1.1-2.9,2.6
		c1.3,0.2,2.2,4.5,3.7-0.1c0.1-0.2,1.3-0.2,1.8,0c2.2,1.1,4.3,2.4,6.4,3.6c0.8,1,0.5,1.7-0.5,2.3c-1.5-0.3-2.9-1.9-4.5-0.3
		c-5.4-2.7-5.6-2.6-6,3.2c-2.5-0.2-1.7-3.4-3.7-4.1C16.6,80.6,15.7,80.2,16.2,79z"/>
	<path class="st199" d="M84.1,102c1.3,0,2.6,0,4.2,0c-1.6,3-5.6,1.1-6.9,4.2c2.3,0.8,5.8-1,6.7,2.7c-2.3,2.7-5.1,3.5-8.4,2
		c-2.9-1.3-6.4,0.2-9.5-2.3C77,110.3,79.7,104.5,84.1,102z"/>
	<path class="st200" d="M89.1,109c0.1-3.5,2-2.5,4.6-3.1c5.3-1.2,10.3-0.1,15.4-0.9c0.9,1,0.9,2,0,3.1c-0.7,0.3-1.3,0.6-2,1
		C101.1,107.3,95.1,109.7,89.1,109z"/>
	<path class="st201" d="M33.1,114.2c-0.4-0.4-0.8-0.8-1.1-1.2c-1.8-1.4-2.9-2.8,0.2-4c0.9-0.7,1.7-1.4,2.7-2.2
		c0.2,1.3,0.4,2.5,0.6,3.6c2.6,0.4,1.6-6.6,5.7-2.5c-0.3,0-0.7,0-1,0c-1.4,2.4,2,6.1-2,7.9c-0.6,0-1.2,0-1.8,0
		C34.8,116,34.1,114.9,33.1,114.2z"/>
	<path class="st202" d="M47.2,114c0.9-2.9,1.6-6.1,5.5-2.6c0.7,0.6,0.8,0.5,0.4,5.6C50.1,118.1,48.4,116.4,47.2,114z"/>
	<path class="st141" d="M27.1,82c1.3-1.5,2.7-2,4,0c0.3,0.2,0.4,0.4,0.3,0.7c-0.1,0.2-0.2,0.3-0.3,0.3c-1.5-0.6-2.1-0.3-2,1.4
		c0.1,1.7,2.2,2.5,1.8,4.4C25.7,86.7,24.5,84.5,27.1,82z"/>
	<path class="st112" d="M47.2,114c2.1,0.8,3.5,3,6,3.1c0,0,0-0.1,0-0.1c0.2,2.3-1.5,3.4-2.8,4.8c-3.7,1-1.1-3.2-3-3.7
		c-0.7-0.7-1.3-1.5-2-2.2c0.6-0.5,0.1-1.5,0.9-2C46.5,114,46.8,114,47.2,114z"/>
	<path class="st203" d="M50.3,121.8c-0.2-2.3,1.4-3.5,2.8-4.8c5.3-0.4,2.6,2.8,2.2,5c-0.4,0-0.9,0.1-1.3,0.1
		c-0.6,0.4-1.3,0.7-1.9,1.1C51.5,122.7,50.9,122.2,50.3,121.8z"/>
	<path class="st110" d="M46.2,113.9c-0.3,0.7-0.6,1.3-0.9,2c0-3.1-2.8-5-3.4-7.8C45.7,107.6,46.5,108.8,46.2,113.9z"/>
	<path class="st204" d="M31.1,83c0-0.3,0-0.7,0-1c0.8-0.4,1-1.2,1-2c2.2,1.8,6.2,0.8,7,4.6c-1.6,1.3-3.7-4.6-4.9,0.5
		C32.6,85.1,32.1,83.7,31.1,83z"/>
	<path class="st205" d="M18.3,80.2c2.5,0.8,1,3.8,2.7,5c0.1,0.6,0.1,1.1,0.2,1.7c-0.3,1.1,0.2,2.4-1.1,3.1
		C18.2,87,15.9,84,18.3,80.2z"/>
	<path class="st206" d="M19.9,123.1c-1.2-1-2.2-2.1-3.9-2.1c-1.7-1-0.3-2,0-3C20.3,117.4,20.3,120.1,19.9,123.1z"/>
	<path class="st207" d="M18.3,80.2c-0.3,3.4,1.6,6.5,1.8,9.8c-0.4,1.3,2.4,3.8-1.3,4c-2.8-1.9-0.1-7-4.6-7.9c-0.3-1-0.7-2-1-3.1
		c0.3-1.9,0.6-3.8,3-4C16.6,80,17.5,80,18.3,80.2z"/>
	<path class="st92" d="M38.1,115.9c2.1-2.3-0.2-5.7,2-7.9c1.6,5,3.3,10.1,4.9,15.1c-2.8,1-1.9-2-3-2.9
		C40.6,118.9,40,116.8,38.1,115.9z"/>
	<path class="st208" d="M33.1,114.2c1.4-0.1,2.4,0.6,3.1,1.7c-0.9,1.3,0.6,3.9-2.2,4.2C33.2,118.2,30.8,116.6,33.1,114.2z"/>
	<path class="st209" d="M132.2,79.1c0.6-3.3,1.3-6.7,1.9-10c0.5-2.7,0.8-5.4,0.6-8.3c-0.2-3.2-0.3-6.7,2.4-9.3
		c1.2-0.9,2.7-1.7,3.2-3.3c1.7-2.7-0.5-6.3,2.1-8.7c1.9-0.7,4-0.9,5.9-1.9c1.9-1,3.7-0.6,5.1,1.2c-0.1,6.9-1.7,13.3-5.4,19.2
		c-0.7,1.2-1.9,1-3,1c-0.6-1.1,0.1-2.1,0.1-3.3c-1.1,0.4-1.3,1.7-2.1,2.2c-1.2,2.7-1.7,5,2.6,4c1.9-0.4,1.4,0.9,1.3,1.6
		c-0.4,2.2-0.5,4.5-1.9,6.5c-2.5-1.4-3,0-3,2.1c-0.7,2.1-5.2,2.3-2.9,5.9c0.5,0.7,0.4,1.3-0.2,1.9c-1.2,0.7-1.9,1.7-1.9,3.1
		C133.2,84.4,135,78.9,132.2,79.1z"/>
	<path class="st10" d="M122,101c1.6-1.3,1.9,0.9,3,1c3.6,1.4,1.1,4.6,2,6.8c0.1,1,0,1.8-0.9,2.4c-1.9-0.2-1.9,4.7-4.8,1.8
		C121.6,109,122.1,105,122,101z"/>
	<path class="st210" d="M127,108.8c-1.3,0-1.8-0.4-1.3-1.8c0.6-1.8,0.7-3.5-0.6-5c2.9-2.2,2.5,0.8,3.2,2
		C128.1,105.7,128.1,107.4,127,108.8z"/>
	<path class="st211" d="M109.1,108c0-1,0-2,0-3.1c0.6-1.5,2-1.9,3.3-2.5c1.3-1.2,2.1-0.4,2.9,0.6c1,1.8,2.5,3,4.3,4
		c1.9,1.1,2.9,2.7,1.5,5c-1.3-1-2.6-2-3.8-3c-2.3,0.3-1.6,3-3.2,3.9C113.7,110,110,110.4,109.1,108z"/>
	<path class="st212" d="M121.1,112c0.3-2.3-0.7-3.9-2.9-4.4c-2.7-0.6-3.3-2.7-4-4.8c1.9-0.4,4.1,0.7,5.9-0.9c0.6-0.3,1.3-0.7,1.9-1
		c2.3,4.1,1.3,8.1-0.8,11.9C121.1,112.6,121.1,112.3,121.1,112z"/>
	<path class="st213" d="M118.1,117c-0.1-1.4-3.2-2.1-1-4c0.7,0.5,1.4,0.9,1.9,1.5c0.6,0.6,2.2,0.8,1.3,2.1
		C120.1,117,118.9,116.8,118.1,117z"/>
	<path class="st214" d="M228.1,57c1.8-0.4,3.5-0.8,5.3-1.3c0.6,0.1,1.1,0.2,1.7,0.3c0.5,1.3-0.6,1.7-1.4,2.1c-2.8,1.6-1.7,4-0.4,5.5
		c2.3,2.8,3.3-1.2,5-1.5c3.2-0.6,5.5-3.3,8.6-4c2.4-0.1,4.9-0.3,7.2,1c0.9,0.8,2.4,1.2,2.1,2.8c0,0.7-0.1,1.4-0.1,2.1
		c-2.3,1.1-5.6-2.4-7.2,1.6c0,1.8,0.3,3.7-2,4c3.3,1.3,5.8-1.8,8.9-2c1,1.7,2.4,3.3,1.6,5.5c-4.7,2-9.4,0.5-14.1-0.1
		c-1.4,0.7-2.7,1-4.1,0c-0.7-2.1-3-2.4-4.3-2.2c-1.7,0.3-2.7,0.3-3.8-0.9c-0.8-1.2,0.2-3-1.1-4.1C227.5,63.4,227.2,60.3,228.1,57z"
		/>
	<path class="st215" d="M228.1,57c0.6,3,1.3,6,1.9,9c-4.2,3.3,0.2,6.7,0,10c-2.4-1.2-2.7,2.8-4.9,2.1c0-0.8-0.2-1.6-1-2
		c1-1.4,0.3-2.8,0.2-4.2c-0.1-1.9-0.8-3.8,1.6-5.9c1.9-1.6,1.4-5.8,0.2-8.9c-0.3-1.7-0.5-3.4-0.8-5.5C226.9,53.3,227.7,55,228.1,57z
		"/>
	<path class="st216" d="M237.1,93c2.3,2,3.2,4.2,1,6.8c-1.2-0.3-1.5,2.6-3.1,1c-1.1-2.1-3.5-3.7-2-6.5c0.7-0.8,1.5-0.8,2.3-0.2
		C235.9,93.7,236.5,93.3,237.1,93z"/>
	<path class="st217" d="M231.1,70c0.6,0.1,1.3,0.1,1.9,0.4c2.8,1.3,1.6-5.3,4-2.3c0.9,1.1,0.5,3,2.9,3.2c0.7,0-0.8,1-0.8,1.8
		C235.8,75.3,232.2,73.9,231.1,70z"/>
	<path class="st218" d="M257.1,72.9c0.3-1.8-2.4-2.9-1-4.9c1,0.1,1.5-0.5,2-1.3c0.9-1.3,2.1-1.4,2.9,0.3c0,0.6,0.1,1.2,0.1,1.8
		c-1.2,3.1,2.6,1.5,2.9,3.2c-1.4,2.4-3.5,2.7-6,2c-0.3,0-0.7,0-1,0c-0.3-0.2-0.4-0.5-0.3-0.7C256.9,73,257,72.9,257.1,72.9z"/>
	<path class="st219" d="M258.1,74c2-0.7,4-1.3,6-2c0.5,1.6-0.2,3.6,1.7,4.8c0.4,0.2,0.4,1.3-0.4,1.6c-0.4,0.1-1.4-0.1-1.4-0.2
		C263.9,74.1,257.9,78.5,258.1,74z"/>
	<path class="st220" d="M257.1,72.9c0,0.4,0,0.7,0,1.1c-4.8,2.1-9.3,0.8-13.9-1C247.8,73,252.5,73,257.1,72.9z"/>
	<path class="st221" d="M235.3,94c-0.8,0.1-1.5,0.1-2.3,0.2c-1.3-2-2.7-3.9-3.1-6.2c0.4,0,0.8,0,1.1,0c2.3,0.4,2.5,2.9,4,4
		C235.2,92.6,235.2,93.3,235.3,94z"/>
	<path class="st222" d="M235.1,91.9c-2.6,0-2.7-2.7-4-4C235.8,85.8,233.8,90.6,235.1,91.9z"/>
	<path class="st223" d="M261,67.1c-1.4-0.7-2.4-0.7-2.9,1.1c-0.8,2.7-1.3-0.7-2.1-0.1c-2.5,0.7-3.9,4.1-7.1,2.9
		c-1.2-0.5-5,0.1-1.2-2.8c0.9-0.7-0.3-2.1-0.6-3.2c3-1.7,6-0.1,9,0c1.8-1.1,3.8-0.9,5.5-0.1C263.8,66,262.6,66.7,261,67.1z"/>
	<path class="st224" d="M256.1,65c-3,2.7-6-0.2-9,0c2.5-4.5,5.7-3.4,9-1.1C256.1,64.3,256.1,64.6,256.1,65z"/>
	<path class="st225" d="M259.1,93.8c0.7-0.6,1.3-1.2,2-1.8c3.5-1,6.8-1.3,10.1,0.8c0.6,1.3-0.2,2.2-1,3.1c-0.1,0.4-0.1,0.7-0.2,1.1
		c-1.2,0.4-2.5-0.4-3.7,0.2c-1.2,0.5-2.5,0.8-3.8,0.7c-2.5-0.1-3.8,3.3-6.6,2.2c-0.4-0.3-0.8-0.7-0.8-1.2
		C255,98.5,258.7,94.1,259.1,93.8z"/>
	<path class="st226" d="M278.2,103c-2.4-0.2-4.1-1.8-5.9-3.1c-0.7-0.6-0.8-1.2-0.3-1.9c0.7-1.2,3.2,0,3.2-1.9
		c-0.1-1.6,1.2-1.9,1.9-2.8c0.8,2,2.3,3.5,2.1,5.7C278.8,100.4,279.5,102,278.2,103z"/>
	<path class="st227" d="M271.3,93.1c-3.4-0.4-6.8-0.7-10.1-1.1c1-1.4,2-2.8,3-4.2c2.8,1.1,5.2-1.8,8-0.9c-0.3,1.7-1.6,2.2-3.2,2.4
		c1.1,1.2,2.3,1.5,3.6,1.6C272.8,92.1,272.7,92.9,271.3,93.1z"/>
	<path class="st228" d="M272,98c0.1,0.6,0.2,1.3,0.3,1.9c-0.2,1.2,0,2.5-1.2,3.2c-2.9,1.6-3.9-1.8-6-2.3c-0.2-0.5-0.2-0.9,0.1-1.3
		c1.4-1.1,2.6-2.9,4.9-1.6C270.6,98,271.3,98,272,98z"/>
	<path class="st229" d="M271.3,93.1c0.4-0.7,0.8-1.5,1.2-2.2c1.4-0.7,2.2-2.4,4.8-2.1c-2.7,2.4-2.3,7-7,7.1
		C269.8,94.7,271,94.1,271.3,93.1z"/>
	<path class="st230" d="M270,98c-2-0.2-2.8,2.5-4.9,2c-2.3-1.3-2.3-1.3,1.1-3.9c1.8-1.7,2.7-0.1,3.8,1C270.1,97.3,270.1,97.7,270,98
		z"/>
	<path class="st231" d="M256.1,100c1.4-0.7,2.9-1.1,3.7-2.7c0.5-1,1.3-2,2.4-0.3c-0.2,1.7,0.4,3.3,0.8,4.9c-0.2,4.4-4,7.5-9,7.1
		c-3.2-1.5-4,1.7-5.8,3c-1.1-3,2.5-3.7,3-5.9c0.7-1.6,2.9-2.2,3.3-4.1C254.9,101.2,255.3,100.4,256.1,100z"/>
	<path class="st231" d="M254.1,110c1,1,2,2,3,3.1c-0.5,1.1-0.8,2.9-2.4,2.5c-2-0.4-1.4-3-2.7-4.3C251.5,110.8,253.2,110.2,254.1,110
		z"/>
	<path class="st232" d="M263,102c-1.7-1.4-3.5-2.8-0.8-4.9c1.3-0.3,2.7-0.6,4-1c0.7,1.6-4,1.7-1.1,3.9c0,0.3,0,0.6-0.1,0.9
		C264.2,101,263.4,101,263,102z"/>
	<path class="st233" d="M271.1,104c1.5,2.6-1.6,3.4-2.3,5.2C269.2,107.3,268.6,105.1,271.1,104C271.1,104,271.1,104,271.1,104z"/>
	<path class="st234" d="M137.1,26c-3.8-0.3-8,0.9-11-2.8c-1-0.1-2-0.2-3-0.3c5.1-1.9,10.3-0.8,15.4-0.3c3,0.3,5.7,0.6,7.5-2.5
		c1,0,2,0,3,0c0.7,1.3,0.1,2.5-0.4,3.6c-0.8,1.4-1.7,2.8-3.3,3.3C142.5,27.5,139.6,28,137.1,26z"/>
	<path class="st235" d="M36.2,47.1c3.9-0.8,8.1,1.1,12-1.1c1.1,0,2.3,0,3.4,0c7,0.3,7.7,1.2,5.7,7.9c-2.4,0.7-4.8,1.4-7.2,2.2
		c0.2,1,1.4,2.1-0.4,2.9c-1.4,0-1.6,1.4-2.4,2c-4.5-0.6-9.1-1-13.3-3.2c0-0.3,0-0.6,0-0.9C35.7,53.9,36,50.5,36.2,47.1z"/>
	<path class="st236" d="M32.1,63c-5,2-10.1,0.6-15.2,0.8c-0.6-1.3-1.3-2.5-1.9-3.8c0.7-0.3,1.5-0.6,2.2-1c0.3,0.6,0.7,1,1.1,1.6
		c0.1-0.6-0.7-1-0.3-1.6c0.7-0.4,1.4-0.7,2.1-1.1c0.6-0.6,1.3-0.6,2-0.1c0,0.3,0,0.7,0,1c0.6,0.6,1.2,1.3,2,1.6
		c-0.4-0.5-0.8-1.1-1-1.7c0.3-0.3,0.7-0.6,1-0.9c0.3-0.5,0.6-0.5,1,0c1.7,0,3.4,0.1,5.1,0.1c0.1,0.2,0.2,0.3,0.3,0.5
		c-0.1,0.4-0.2,0.7-0.4,1c-0.3,1.6,1.3,1.9,1.9,2.8C32,62.7,32,62.9,32.1,63z"/>
	<path class="st237" d="M30.1,59c0-0.3,0-0.6,0-0.9c0,0,0-0.1,0-0.1c0.6-0.6,1.3-0.6,1.9-0.1c0.7,0,1.3-0.1,2-0.1
		c4.7,0,9.3,0.4,13.3,3.2c-1.2,1.3-2.7,0.9-4.2,0.9c-1.7,0.1-3.4,0.5-5.1,0.2c-2.2-0.2-3.9-1.9-6.1-2C31.2,59.9,30.6,59.6,30.1,59z"
		/>
	<path class="st238" d="M23.1,58.9c2,0.4,2.7,2.1,4.4,3.6c-3.8,0.8-4.7-1.2-5.3-3.6C22.4,59,22.7,59,23.1,58.9z"/>
	<path class="st239" d="M22.1,57.9c-0.7,0-1.4,0.1-2,0.1c-0.5-2.7,0.9-5.4-0.3-8.1C22.1,52.1,20.1,55.7,22.1,57.9z"/>
	<path class="st240" d="M25,58l-0.5,0c0,0-0.5,0-0.5,0c-0.2-2.8,0.5-5.5,1.5-8.3C27.1,52.7,25,55.3,25,58z"/>
	<path class="st241" d="M18,59.1c1.1,1.2,3,1.6,3.7,4.1c-2.8-0.4-4.4-1.3-4.4-4.1C17.5,59.1,17.7,59.1,18,59.1z"/>
	<path class="st242" d="M32.1,58c-0.6,0-1.3,0-1.9,0.1c0-2.3,0-4.7,0-7c0.2,0,0.3,0,0.5,0C31.1,53.3,31.6,55.6,32.1,58z"/>
	<path class="st243" d="M147.9,23c0.4-1,0.7-2,1.1-3c1-3.7,3.6-6.9,3.1-11c1-0.6,2.1-1.3,3.1-1.9c0.7-1,1.3-2.1,2-3.1
		c1.2,0.8,1.3,2.6,2.9,3c2,3.6,4,7.2,6,10.8c-0.7,1.2-1.8,1.6-3,2.1c-3.1,1-6.1,2-9.2,3.1C151.9,23.2,149.9,24.4,147.9,23z"/>
	<path class="st244" d="M111.1,49c-7.7,3.5-16.2,3.9-24.2,6.1c-0.9,0.3-1.8,0.7-2.8,1c-1.6-0.4-2.9,0.1-4.1,1
		c-2.1,0.6-2.7-0.1-1.9-2.1c-0.3-3.2,3.8-0.4,4.1-3c0.3,0,0.6,0,0.9,0c4.3,0.8,8.1-1.1,12.1-2c3.9-3.3,8.5-2.7,13-2.3
		C109.1,48.2,110.1,48.6,111.1,49z"/>
	<path class="st245" d="M56.1,58.1c2.8-0.1,4.9-3.2,8-2.1c0.3,1.6,0.9,3.2-1.8,3.2c-2.1,0-4.2,0.4-6.2,0.6
		C55.5,59.3,55.5,58.7,56.1,58.1z"/>
	<path class="st246" d="M38.2,61c1.7,0.4,3.6-0.9,5,0.9c-1.3,4.2-4.5,2.2-7.1,2.1c-0.5-1.2,0.5-1.6,1.2-2.2
		C37.6,61.5,37.9,61.3,38.2,61z"/>
	<path class="st247" d="M56.1,58.1c0,0.6,0,1.1,0,1.7c-2.2,0.4-4.4,0.6-6.4-0.8c0.1-1,0.2-1.9,0.4-2.9
		C52.1,56.8,54.1,57.5,56.1,58.1z"/>
	<path class="st248" d="M78.1,55c0,1.3,0.7,2,1.9,2.1c-2.7,1.5-5.3,1.4-8,0C74,56.4,76.1,55.7,78.1,55z"/>
	<path class="st236" d="M37.9,61.8c-0.6,0.7-1.2,1.4-1.8,2.2c-1.2-0.6-2.5-1.1-3.9-0.9c0,0-0.2-0.2-0.2-0.2
		c-0.9-1.1-2.5-1.9-1.9-3.8c0,0,0.1-0.1,0.1-0.1c0.7,0,1.4,0,2.1,0C33.9,60.4,35.7,61.4,37.9,61.8z"/>
	<path class="st249" d="M180.9,18.1c-2.5,2.4-5.5,4-8.8,4.9c-0.3-1.7-0.6-3.5-3.1-2.8c-0.3-0.4-0.3-0.8,0.1-1.2
		c1.6-0.8,0.1-3.7,2.6-3.8c1,0,1.9-3.9,3.3,0c0.4,1.1,0.7-2,2-2.2C176.7,16.1,177.2,18.3,180.9,18.1z"/>
	<path class="st250" d="M169.1,19c0,0.3,0,0.7,0,1c0.3,1.1,0.8,2.2,0.1,3.3c-1.9-0.6-4.3,0.3-5.8-1.9c-0.5-0.8-1-1.6-0.4-2.6
		c0.8-1,2-0.7,3.1-1C166.6,19.3,167.9,18.9,169.1,19z"/>
	<path class="st251" d="M177.1,33c0.8,1.7,1.6,3.3,3.9,3c-3.4,1.7-2.3,4.9-1.7,7.3c0.6,2.6,1.6-1.1,2.6-0.3c0.1,3.7-2.2,7-1.9,10.8
		c0.1,1.5-1.4,2.1-2.8,2.2c-2-0.9-3.4-2.5-4.8-4.1c-0.4-5.4-0.2-10.8,0.4-16.3c0.3-2.4,1.2-3.8,3.9-3.1
		C176.7,32.7,176.9,32.8,177.1,33z"/>
	<path class="st252" d="M211.1,50c-3,2.2-4.2-2.8-7-1.7c0.8,3.2-0.2,5.8-3,7.7c-0.7,0.6-1.3,0.6-2,0c-0.3-0.3-0.7-0.7-1-1
		c2.4-1,4.6-1.9,1.5-4.8c-2-1.9-3.6-4-5.7-6.9c3.5,2,5.2,1.8,4.3-2.2c-0.2-1,0.9-1.7,1.8-2.1c1.3,2.8,5,3.5,5.6,7.1
		c0.2,1,2.6,1.9,4.4,0.9C211.1,47.7,211.5,48.7,211.1,50z"/>
	<path class="st253" d="M173.1,52c1.9,0.8,3.3,2,4,4c3.6,2.4,3,5.8,2.6,9.9c-2.1-2.2-1.6-4.6-2.6-6.4c-0.5-0.9-0.4-2.6-2.2-1.3
		c-0.3-0.4-0.7-0.7-1-1.1c-1.2-0.7-2.3-1.4-2.3-3C171.9,53.2,172.3,52.5,173.1,52z"/>
	<path class="st177" d="M192.1,36c1.6,0.2,2.6-0.6,3.7-1.7c1.6-1.7,3.1-0.9,4.3,0.7c-1.1,2.5-5.5,2.4-4.5,6.8
		C192.8,40.2,193.3,37.6,192.1,36z"/>
	<path class="st161" d="M193.1,74c-0.3,0.3-0.7,0.7-1,1c-1.7-0.3-3.4-0.9-5.3-0.2c-1,0.4-2.9-0.6-1.8-1.8c1.8-2,5,0.5,7.3-1.4
		C192.7,71.2,193,73.1,193.1,74z"/>
	<path class="st159" d="M206,74.1c2,1.6,4.1,5.2,6.1,0c3.6,3.3,1.5,6.6-0.5,9.2c-2.1,2.6-4.8-0.1-7.3-0.4c-5.9-0.6-1.4-6-4.2-7.8
		C201.5,71.6,204.3,76,206,74.1L206,74.1z"/>
	<path class="st58" d="M214.1,88.1c-0.1,0.8-0.1,1.5-1.3,1.4c-1-0.1-1.8-0.1-1.8-1.4c-0.2-0.9-1.1-2.1,0.4-2.4
		C212.9,85.4,213.4,87,214.1,88.1z"/>
	<path class="st254" d="M148.1,58c1.7-6.3,3.3-12.7,5-19c1.2-1.8,2.7-1.8,4.4-0.6c0.1,0.7,0.1,1.3-0.7,1.7c-1.6,2.2-0.1,4.9-1.3,7.2
		c-0.5,0.9,0.3,0.9,1,1c5.3,0.6,6.7,4.1,6.5,8.8c-4.2,1.5-8.7,0.8-13,1c-0.3,0.5-0.6,0.5-0.9,0C148.8,58,148.5,58,148.1,58z"/>
	<path class="st255" d="M143.1,57.9c0-0.7,0-1.3,0-2c0.2-2.3,2.4-2.7,3.6-2.2c2.1,0.9-0.2,2-0.5,3.1c-0.2,0.8-0.7,1.5-1.1,2.2
		C144.4,58.6,143.8,58.3,143.1,57.9z"/>
	<path class="st256" d="M142.1,72.1c-2-2-0.9-3.7,0.4-5.4c1.9,0.4,1.1,2.7,2.6,3.3C144.7,71.4,143.5,71.9,142.1,72.1z"/>
	<path class="st257" d="M139,79.9c0.1-0.6,0.1-1.3,0.2-1.9c3.5,2.1,3.2,3.8-0.9,5.8C138.6,82.1,138.8,81,139,79.9z"/>
	<path class="st209" d="M149.1,58c0.3,0,0.6,0,0.9,0c1.4,2.9,0.7,5.6-0.9,9.3C149.1,63.6,149.1,60.8,149.1,58z"/>
	<path class="st258" d="M172.2,54c0.6,1.1,1.2,2.1,1.8,3.2c-1.8,1.5-0.2,3,0.2,4.4c1.2,4.1,2.3,8.1,2,12.4c-3-0.7-3.4-4-3.3-5.6
		c0.2-3.3-1.4-4.3-3.7-5.3c-2.7-0.6-1.9-2.3-1.5-4.1c0.5-2.3,2-4.5,0.5-6.9c-0.6-1.9-1.2-3.8,2.1-2.6C171.2,50.7,172.4,52,172.2,54z
		"/>
	<path class="st259" d="M156.8,40.1c0.1-0.7,0.2-1.4,0.3-2c1.2-0.7,2.6-0.1,3.9-0.5c1.2-0.2,2.3-0.4,3.4,0.2
		c1.3,1.1,2.6,2.2,2.1,4.3c-1.6,1.7-1.8,4.3-3.6,5.9C159,46.8,158.9,42.7,156.8,40.1z"/>
	<path class="st260" d="M162.9,48c0.6-2.2-0.6-5.3,3.2-5.8c1.2,2.7,4.8,4.2,3.9,7.9c-2.6-1.3-1.8,0.9-2,2
		C166.4,50.5,165.8,47.9,162.9,48z"/>
	<path class="st70" d="M108.1,47.7c-4.3,0.8-8.7,1.5-13,2.3c0.8-2-2.8-0.1-2-2.4c0.6-1.7,1.8-1.6,3.1-1.6c1.5,0,2.9-0.1,3.6-2.3
		c-1.7-0.2-3.3,1.8-4.8,0.3c-0.2-2.6,0.8-4.2,3.7-3.9c3.1,0.4,5.4-1.9,8.4-2c0.6,0.3,1.1,0.7,1.7,0.9c1.1,0.3,3.3-0.3,3,1.5
		c-0.5,2.6-2.6,0.7-3.5,0.3c-3.9-1.9-3.3,2.4-3.6,3.2c-0.7,1.8,0.6,2.6,2.8,1.7C108.8,45.2,108.6,46.8,108.1,47.7z"/>
	<path class="st159" d="M199.1,56c0.7,0,1.3,0,2,0c0,2,0,4,0,6C198.2,60.9,198.2,60.9,199.1,56z"/>
	<path class="st261" d="M211.1,50c-0.3-1-0.7-2-1-3c0.1-0.8,0.3-1.7,1.2-1.9c1.3-0.2,1.1,0.7,1.2,1.5
		C212.7,48.1,212.3,49.2,211.1,50z"/>
	<path class="st262" d="M206,74c-0.1-1.3-1.9-1.9-1.2-3.8c1.3,1.1,3,1.5,3.5,3.4C207.6,73.8,206.8,73.9,206,74
		C206,74.1,206,74,206,74z"/>
	<path class="st263" d="M181,21.7c1.8,0.7,1.9-1.4,3-1.9c0.5,5.9-3.6,9.4-7,13.2c0,0,0,0,0,0c-2.6-2.6-1.1-5,0.9-6.6
		C179.6,25,180.4,23.5,181,21.7z"/>
	<path class="st178" d="M181,21.7c0.8,1.8,1.9,3.7-1,4.8c-3.3,1.2-3.7,3.6-3,6.5c-1.5,0.1-3.7,0-3.2,1.9c0.7,3-1.2,5.5-0.7,8.3
		c0.5,3,0.8,5.9,0,8.8c0,0.8-0.2,1.5-0.9,2c-0.8-1.3-2.1-2.2-2.1-3.9c-1-2.8-4.4-4.4-3.9-7.9c0.3-1.8-2.3-2.3-2-4.2
		c-0.6-1-0.2-1.8,0.2-2.7c2.3-3.2,4.6-6.4,8.7-7.8c2-0.7,2.8-3,3.9-4.7C178.2,22.1,179.2,20.5,181,21.7z"/>
	<path class="st264" d="M164.1,21.1c1.6,0.8,3,2.1,5,1.9c0.3,0.2,0.3,0.4,0.3,0.6c-0.1,0.2-0.2,0.3-0.3,0.3c-8,4.3-15.9,8.6-25,10.1
		c-1.4-3.2-0.6-5.8,2.1-8c0.6-1,1.2-2,1.8-3c2-0.3,4-0.7,6.1-1c1.3-0.8,2.9-0.3,4.2-1.2c0.7-0.5,1.6-0.5,2.4-0.1
		C161.8,21.3,163.2,21.5,164.1,21.1z"/>
	<path class="st265" d="M146.1,26.1c-0.3,2.8-2.8,5-2.1,8c0,0.8-0.2,1.5-1.1,1.8c0-1.5-4.8-2.2,0-4.2c-2.8-1.2-4.9,1.6-7-0.4
		c-0.8,2.2,2.3,2.2,1.4,4.3c-2.8-2.2-5.7-5-9.5-1.7c0.6,2.4,3.8,0.1,5.2,3.2c-3.8-0.7-7.1-0.5-9-4c3-0.7,6.1-1.3,9-2.3
		c2.1-0.7,5.2-1.1,4-4.7C140.1,26,143.1,26,146.1,26.1z"/>
	<path class="st266" d="M176.9,22.8c0.7,3-1.3,5.4-3.3,5.9c-4.5,1-6,4.8-8.7,7.6c-2.8-0.7-5.6-1.4-5.7-5.1
		C165.5,29.2,170.9,25.4,176.9,22.8z"/>
	<path class="st267" d="M160.9,38.9c-1.4,0.3-2.6-0.4-3.8-0.9c-1.3,0.3-2.7,0.7-4,1c-2.1-1.2-3.8-1-5.8,0.5
		c-1.3,0.9-3.5,0.5-5.3,0.6c-0.3,0.3-0.6,0.2-0.9-0.1c4.4-3.6,9.9-4.5,14.9-6.8C157.7,35.1,161.6,35,160.9,38.9z"/>
	<path class="st268" d="M141.1,40c0.3,0,0.6,0,0.9,0.1c0.1,3,1.2,6.1-0.7,9c-3.5-0.6-6.2-3-9.5-4.2c-0.6-0.5-1-1-1-1.8
		c0.6-1.8,2.2-1.6,3.5-2C136.6,41,138.7,39.6,141.1,40z"/>
	<path class="st269" d="M160.9,38.9c-0.1-3.2-5.2-2.1-4.9-5.7c0.7-1.3,2-1.7,3.2-2.1c1,2.7,4.1,3.1,5.7,5.1
		c-0.3,0.6-0.6,1.2-0.9,1.7C163.1,38.3,162,38.6,160.9,38.9z"/>
	<path class="st270" d="M134.3,41.1c-1.1,0.6-2.2,1.2-3.3,1.9c-1.6,1.8-3.7,2.6-6,2.9c-2,0.3-4,0-3.9-2.8c3.3-1,6.6-2,10-3.1
		C132.2,40.4,133.2,40.7,134.3,41.1z"/>
	<path class="st271" d="M169.1,24c0-0.3,0-0.6,0-1c-0.4-1-1.6-2,0-3c1.5-0.5,2.9-1,4.6-1.6c-0.6,1.8-1.1,3.2-1.6,4.6
		C171.1,23.3,170.1,23.6,169.1,24z"/>
	<path class="st272" d="M113.1,32.8c1.2,1.2,2.4,2.4,4.6,2.5c-3.6,2.1-6,0.3-8.5-1.3C110.5,33.6,111.8,33.2,113.1,32.8z"/>
	<path class="st273" d="M121.2,32c-2,1.4-4,1.5-6,0c3.7-0.5,3.7-0.5,4.1-5c1.4,0.1,1,1.4,1.3,2.1C121,30,121,31,121.2,32z"/>
	<path class="st274" d="M138.1,51.9c-3,3.1-2.5,7-2,10.6c0.3,2.6,0.1,4.8-2,6.5c-2.1,0.1-4-0.6-5.4-2c-1.9-1.9-3.7-2.2-6.3-1.3
		c-2.6,1-4.9,0.2-4.3-3.2c0.7-4.2-3.5-6.7-3.2-10.8c-1.9,1-3.3,2.6-5.4,2.5c-1.7-2.5,4.9-2.3,1.6-5.2c0.5-0.7,1-1.3,1.6-2
		c3.9-0.4,7.8-1.8,11.7,0c3.5,0.9,6.9,1.8,10.4,2.7C136.2,50,138,49.8,138.1,51.9z"/>
	<path class="st275" d="M124,48c-3.6-2.3-7.7,1.8-11.3-1c1.8-3.4,5.8-2.1,8.4-4c1.1,2.3,2.9,2.3,4.9,1.4c1.6-0.7,3.1-1.7,5-1.5
		c0.4,0.4,0.7,0.8,1.1,1.2c1,2.3-0.8,2.5-2.2,2.9C128,47.6,126,47.5,124,48z"/>
	<path class="st276" d="M254.1,59c-2.6-0.1-5.2-0.2-7.8-0.3c-1.4-0.3-2.8,0.6-4.2-0.1c-1-0.6-2.4-1-1.9-2.6
		c5.3,0.6,10.8,0.6,15.8,2.9C255.3,58.9,254.7,59,254.1,59z"/>
	<path class="st277" d="M240.1,56c0.7,0.7,1.3,1.3,2,2c1.3,1,1.6,2-0.2,2.8c-1.5,0.7-3.1,0.6-4.6-0.1c-1.2-1-1.9-2.1-1.2-3.7
		c1.1-0.1,2.2,0.1,3-1C239.4,55.9,239.8,56,240.1,56z"/>
	<path class="st278" d="M236.1,56.9c0.3,1,0.7,2.1,1,3.1c-1.4,1.6,1.9,1.6,1,3c-0.2,2.8-2.3,3.5-4.4,3.1c-3-0.5-1.8-3.9-3.2-5.7
		c-1.2-1.6,0.7-2.5,2.1-3.1c0.9-0.4,2-0.2,2.5-1.3C235.4,56.3,235.7,56.6,236.1,56.9z"/>
	<path class="st279" d="M256.1,100c-0.3,0.7-0.5,1.5-1.4,1.7c-0.6,1.1-1.6,1-2.6,0.6c-1.8-1.4-0.9-3.7-1.8-5.4
		c1.9-3.8,6.1-1.5,8.8-3.2C258.3,96,255.3,97.1,256.1,100z"/>
	<path class="st280" d="M250.3,97c1.9,1.1,1.8,3,1.8,4.9c-0.8,1.1,1.8,4.3-2.1,3.4c-1-0.4-1.9-0.9-2.9-1.3
		C248.2,101.6,249.3,99.3,250.3,97z"/>
	<path class="st281" d="M250.1,105.2c0.8-0.3,2.3-0.2,1.3-1.7c-0.4-0.6-2,0.5-1.8-0.7c0.2-1.1,1.7-0.6,2.6-0.9
		c0.8,0,1.7-0.1,2.5-0.1c1.9,3.9-1.7,3.4-3.5,4.4C250.9,105.8,250.5,105.5,250.1,105.2z"/>
	<path class="st200" d="M99.4,101.7c4.8-2.9,6.8-2.3,8.2,2.2C105,102.4,102.5,101.8,99.4,101.7z"/>
	<path class="st282" d="M120.1,102c-1.7,2.4-3.6,2.5-5.9,0.9c-0.5-0.8-1.2-0.5-1.8-0.4c-0.1-2.4,1.2-2.8,2.7-1.5
		C116.7,102.3,118.4,101.8,120.1,102z"/>
	<path class="st283" d="M124,48c1-2,2.8-2,4.6-2c1.4,0,3.1,0.3,3.5-1.8c3.5,0.9,6.6,2.3,9.1,4.9c-0.3,1.8-1.8,2.2-3.1,2.8
		C133.4,50.6,128.7,49.3,124,48z"/>
	<path class="st284" d="M238.1,63c-0.6-0.9-2.1-1.5-1-3c1.5-1.1,4.8,2.2,5-2.1c1.4,0.2,2.9-0.2,4.1,0.8
		C244.1,61.3,241.5,62.9,238.1,63z"/>
	<path class="st285" d="M30,59.1c0.6,1.3,2.4,2,1.9,3.8c-1.5,0.2-2.4-0.8-3.3-1.8C26.1,58.4,28.9,59.3,30,59.1z"/>
	<path class="st286" d="M37.9,61.8c-2.7,0.7-4.8,0.2-5.7-2.8c2.4-0.7,3.7,2,6,2C38,61.3,37.9,61.5,37.9,61.8z"/>
	<path class="st287" d="M164.1,21.1c-0.5,1.9-3.5,1.7-3,4.5c-1.6-1.6-1.4-2.9-0.9-4.4c-2.1,0.3-4.2,0.5-6.2,0.8
		c2.7-1.8,5.9-2.5,9-3.2C163.4,19.6,163.7,20.3,164.1,21.1z"/>
	<path class="st288" d="M169.2,45.9c-2-2.1-2.4-3.6-1.5-5.8C169.7,41.7,168.8,43.5,169.2,45.9z"/>
	<path class="st289" d="M134.3,42c2.9,1.2,4.9-1.1,6.2,1.4c0.3,0.5,0.1,1.3,0.1,1.9C138.6,45.2,136.8,44.8,134.3,42z"/>
	<path class="st197" d="M128,58.8c-0.8,0.6-1.2,1.1-1.5,1c-1.7-0.3-3.4,1.6-5.1,0.1c-0.2-0.2,0-1.2,0.2-1.3
		C123.6,57.7,125.6,57.7,128,58.8z"/>
</g>
</svg>
